<svg width="877" height="86" viewBox="0 0 877 86" fill="none" xmlns="http://www.w3.org/2000/svg">
<path d="M5.568 68.36C3.744 68.36 2.448 67.4 1.68 65.48C0.96 63.56 0.6 60.488 0.6 56.264C0.6 50.024 1.488 44.096 3.264 38.48C3.696 37.088 4.392 36.08 5.352 35.456C6.36 34.784 7.752 34.448 9.528 34.448C10.488 34.448 11.16 34.568 11.544 34.808C11.928 35.048 12.12 35.504 12.12 36.176C12.12 36.944 11.76 38.672 11.04 41.36C10.56 43.28 10.176 44.96 9.888 46.4C9.6 47.792 9.36 49.544 9.168 51.656C10.464 47.912 12 44.744 13.776 42.152C15.6 39.56 17.448 37.64 19.32 36.392C21.24 35.096 23.04 34.448 24.72 34.448C26.4 34.448 27.576 34.832 28.248 35.6C28.968 36.368 29.328 37.544 29.328 39.128C29.328 40.664 28.872 43.448 27.96 47.48C27.576 49.208 27.312 50.504 27.168 51.368C29.568 45.464 32.232 41.168 35.16 38.48C38.088 35.792 40.824 34.448 43.368 34.448C46.488 34.448 48.048 36.008 48.048 39.128C48.048 41 47.52 44.384 46.464 49.28C45.552 53.456 45.096 56.216 45.096 57.56C45.096 59.48 45.792 60.44 47.184 60.44C48.144 60.44 49.272 59.864 50.568 58.712C51.912 57.512 53.688 55.592 55.896 52.952C56.472 52.28 57.12 51.944 57.84 51.944C58.464 51.944 58.944 52.232 59.28 52.808C59.664 53.384 59.856 54.176 59.856 55.184C59.856 57.104 59.4 58.592 58.488 59.648C56.424 62.192 54.192 64.28 51.792 65.912C49.44 67.544 46.752 68.36 43.728 68.36C41.28 68.36 39.432 67.664 38.184 66.272C36.936 64.832 36.312 62.768 36.312 60.08C36.312 58.736 36.648 56.336 37.32 52.88C37.944 49.856 38.256 47.768 38.256 46.616C38.256 45.848 37.992 45.464 37.464 45.464C36.84 45.464 35.952 46.28 34.8 47.912C33.648 49.496 32.496 51.608 31.344 54.248C30.192 56.888 29.256 59.672 28.536 62.6C28.008 64.904 27.384 66.44 26.664 67.208C25.992 67.976 24.888 68.36 23.352 68.36C21.768 68.36 20.568 67.616 19.752 66.128C18.984 64.592 18.6 62.744 18.6 60.584C18.6 58.76 18.84 56.12 19.32 52.664C19.704 49.592 19.896 47.576 19.896 46.616C19.896 45.848 19.632 45.464 19.104 45.464C18.384 45.464 17.472 46.328 16.368 48.056C15.264 49.784 14.184 51.992 13.128 54.68C12.12 57.368 11.304 60.008 10.68 62.6C10.152 64.856 9.528 66.392 8.808 67.208C8.136 67.976 7.056 68.36 5.568 68.36ZM86.1461 51.944C86.7701 51.944 87.2501 52.232 87.5861 52.808C87.9701 53.384 88.1621 54.176 88.1621 55.184C88.1621 57.104 87.7061 58.592 86.7941 59.648C85.0181 61.808 82.4981 63.8 79.2341 65.624C76.0181 67.448 72.5621 68.36 68.8661 68.36C63.8261 68.36 59.9141 66.992 57.1301 64.256C54.3461 61.52 52.9541 57.776 52.9541 53.024C52.9541 49.712 53.6501 46.64 55.0421 43.808C56.4341 40.928 58.3541 38.648 60.8021 36.968C63.2981 35.288 66.1061 34.448 69.2261 34.448C72.0101 34.448 74.2421 35.288 75.9221 36.968C77.6021 38.6 78.4421 40.832 78.4421 43.664C78.4421 46.976 77.2421 49.832 74.8421 52.232C72.4901 54.584 68.4821 56.456 62.8181 57.848C64.0181 60.056 66.2981 61.16 69.6581 61.16C71.8181 61.16 74.2661 60.416 77.0021 58.928C79.7861 57.392 82.1861 55.4 84.2021 52.952C84.7781 52.28 85.4261 51.944 86.1461 51.944ZM68.0021 41.504C66.2261 41.504 64.7141 42.536 63.4661 44.6C62.2661 46.664 61.6661 49.16 61.6661 52.088V52.232C64.4981 51.56 66.7301 50.552 68.3621 49.208C69.9941 47.864 70.8101 46.304 70.8101 44.528C70.8101 43.616 70.5461 42.896 70.0181 42.368C69.5381 41.792 68.8661 41.504 68.0021 41.504ZM87.4118 68.36C85.5878 68.36 84.2918 67.4 83.5238 65.48C82.8038 63.56 82.4438 60.488 82.4438 56.264C82.4438 50.024 83.3318 44.096 85.1078 38.48C85.5398 37.088 86.2358 36.08 87.1958 35.456C88.2038 34.784 89.5958 34.448 91.3718 34.448C92.3318 34.448 93.0038 34.568 93.3878 34.808C93.7718 35.048 93.9638 35.504 93.9638 36.176C93.9638 36.944 93.6038 38.672 92.8838 41.36C92.4038 43.28 92.0198 44.96 91.7318 46.4C91.4438 47.84 91.2038 49.616 91.0118 51.728C92.5958 47.6 94.3718 44.24 96.3398 41.648C98.3078 39.056 100.228 37.208 102.1 36.104C104.02 35 105.772 34.448 107.356 34.448C110.476 34.448 112.036 36.008 112.036 39.128C112.036 39.752 111.82 41.264 111.388 43.664C111.004 45.584 110.812 46.784 110.812 47.264C110.812 48.944 111.412 49.784 112.612 49.784C113.956 49.784 115.684 48.728 117.796 46.616C118.42 45.992 119.068 45.68 119.74 45.68C120.364 45.68 120.844 45.968 121.18 46.544C121.564 47.072 121.756 47.792 121.756 48.704C121.756 50.48 121.276 51.872 120.316 52.88C118.972 54.272 117.388 55.472 115.564 56.48C113.788 57.44 111.892 57.92 109.876 57.92C107.332 57.92 105.388 57.272 104.044 55.976C102.748 54.68 102.1 52.928 102.1 50.72C102.1 50 102.172 49.28 102.316 48.56C102.412 47.6 102.46 46.952 102.46 46.616C102.46 45.848 102.196 45.464 101.668 45.464C100.948 45.464 99.9878 46.28 98.7878 47.912C97.6358 49.496 96.4838 51.608 95.3318 54.248C94.1798 56.888 93.2438 59.672 92.5238 62.6C91.9958 64.856 91.3718 66.392 90.6518 67.208C89.9798 67.976 88.8998 68.36 87.4118 68.36ZM155.025 51.944C155.649 51.944 156.129 52.232 156.465 52.808C156.849 53.384 157.041 54.176 157.041 55.184C157.041 57.104 156.585 58.592 155.673 59.648C153.465 62.192 151.185 64.28 148.833 65.912C146.529 67.544 143.889 68.36 140.913 68.36C138.465 68.36 136.617 67.664 135.369 66.272C134.121 64.832 133.497 62.768 133.497 60.08C133.497 58.736 133.833 56.336 134.505 52.88C135.129 49.856 135.441 47.768 135.441 46.616C135.441 45.848 135.177 45.464 134.649 45.464C134.025 45.464 133.137 46.28 131.985 47.912C130.833 49.496 129.681 51.608 128.529 54.248C127.377 56.888 126.441 59.672 125.721 62.6C124.809 66.44 122.553 68.36 118.953 68.36C117.513 68.36 116.553 67.856 116.073 66.848C115.641 65.792 115.425 63.92 115.425 61.232C115.425 59.696 115.449 58.472 115.497 57.56L115.569 51.8C115.569 44.408 116.313 36.704 117.801 28.688C119.337 20.672 121.569 13.952 124.497 8.528C127.473 3.056 131.025 0.319996 135.153 0.319996C137.361 0.319996 139.137 1.28 140.481 3.2C141.873 5.072 142.569 7.52 142.569 10.544C142.569 15.392 141.153 20.432 138.321 25.664C135.489 30.848 130.881 36.92 124.497 43.88C124.353 46.376 124.281 48.944 124.281 51.584C125.865 47.504 127.617 44.192 129.537 41.648C131.505 39.056 133.425 37.208 135.297 36.104C137.217 35 138.969 34.448 140.553 34.448C143.673 34.448 145.233 36.008 145.233 39.128C145.233 41 144.705 44.384 143.649 49.28C142.737 53.456 142.281 56.216 142.281 57.56C142.281 59.48 142.977 60.44 144.369 60.44C145.329 60.44 146.457 59.864 147.753 58.712C149.097 57.512 150.873 55.592 153.081 52.952C153.657 52.28 154.305 51.944 155.025 51.944ZM133.641 7.448C132.777 7.448 131.817 8.696 130.761 11.192C129.705 13.64 128.673 16.976 127.665 21.2C126.705 25.376 125.913 29.936 125.289 34.88C128.265 31.376 130.713 27.56 132.633 23.432C134.601 19.304 135.585 15.56 135.585 12.2C135.585 10.664 135.417 9.488 135.081 8.672C134.745 7.856 134.265 7.448 133.641 7.448ZM160.062 68.36C157.086 68.36 154.71 67.28 152.934 65.12C151.158 62.96 150.27 60.128 150.27 56.624C150.27 52.784 151.158 49.16 152.934 45.752C154.71 42.296 157.062 39.536 159.99 37.472C162.966 35.36 166.11 34.304 169.422 34.304C170.478 34.304 171.174 34.52 171.51 34.952C171.894 35.336 172.206 36.056 172.446 37.112C173.454 36.92 174.51 36.824 175.614 36.824C177.966 36.824 179.142 37.664 179.142 39.344C179.142 40.352 178.782 42.752 178.062 46.544C176.958 52.064 176.406 55.904 176.406 58.064C176.406 58.784 176.574 59.36 176.91 59.792C177.294 60.224 177.774 60.44 178.35 60.44C179.262 60.44 180.366 59.864 181.662 58.712C182.958 57.512 184.71 55.592 186.918 52.952C187.494 52.28 188.142 51.944 188.862 51.944C189.486 51.944 189.966 52.232 190.302 52.808C190.686 53.384 190.878 54.176 190.878 55.184C190.878 57.104 190.422 58.592 189.51 59.648C187.542 62.096 185.454 64.16 183.246 65.84C181.038 67.52 178.902 68.36 176.838 68.36C175.254 68.36 173.79 67.832 172.446 66.776C171.15 65.672 170.166 64.184 169.494 62.312C166.998 66.344 163.854 68.36 160.062 68.36ZM162.654 61.088C163.71 61.088 164.718 60.464 165.678 59.216C166.638 57.968 167.334 56.312 167.766 54.248L170.43 41C168.414 41.048 166.542 41.816 164.814 43.304C163.134 44.744 161.79 46.664 160.782 49.064C159.774 51.464 159.27 54.008 159.27 56.696C159.27 58.184 159.558 59.288 160.134 60.008C160.758 60.728 161.598 61.088 162.654 61.088ZM223.33 45.896C223.954 45.896 224.434 46.208 224.77 46.832C225.106 47.456 225.274 48.248 225.274 49.208C225.274 50.408 225.106 51.344 224.77 52.016C224.434 52.64 223.906 53.072 223.186 53.312C220.306 54.32 217.138 54.896 213.682 55.04C212.722 59.024 210.898 62.24 208.21 64.688C205.57 67.136 202.642 68.36 199.426 68.36C194.578 68.36 191.05 66.512 188.842 62.816C186.634 59.12 185.53 53.768 185.53 46.76C185.53 40.568 186.298 33.848 187.834 26.6C189.37 19.304 191.602 13.112 194.53 8.024C197.506 2.888 201.034 0.319996 205.114 0.319996C207.322 0.319996 209.098 1.28 210.442 3.2C211.786 5.072 212.458 7.52 212.458 10.544C212.458 14.48 211.714 18.392 210.226 22.28C208.738 26.168 206.266 30.248 202.81 34.52C206.026 34.76 208.642 36.104 210.658 38.552C212.674 40.952 213.874 43.928 214.258 47.48C216.514 47.336 219.202 46.856 222.322 46.04C222.61 45.944 222.946 45.896 223.33 45.896ZM203.458 7.448C202.498 7.448 201.442 8.888 200.29 11.768C199.186 14.6 198.154 18.464 197.194 23.36C196.234 28.256 195.514 33.608 195.034 39.416C198.202 33.608 200.722 28.496 202.594 24.08C204.514 19.616 205.474 15.656 205.474 12.2C205.474 10.664 205.282 9.488 204.898 8.672C204.562 7.856 204.082 7.448 203.458 7.448ZM199.714 60.728C201.202 60.728 202.522 60.104 203.674 58.856C204.826 57.608 205.594 55.808 205.978 53.456C204.49 52.448 203.338 51.128 202.522 49.496C201.754 47.864 201.37 46.136 201.37 44.312C201.37 43.64 201.466 42.728 201.658 41.576H201.442C199.474 41.576 197.818 42.56 196.474 44.528C195.178 46.448 194.53 49.04 194.53 52.304C194.53 55.04 195.034 57.128 196.042 58.568C197.098 60.008 198.322 60.728 199.714 60.728ZM227.338 68.36C224.602 68.36 222.37 67.28 220.642 65.12C218.962 62.96 218.122 60.128 218.122 56.624C218.122 52.784 219.01 49.16 220.786 45.752C222.562 42.296 224.914 39.536 227.842 37.472C230.818 35.36 233.962 34.304 237.274 34.304C238.33 34.304 239.026 34.52 239.362 34.952C239.746 35.336 240.058 36.056 240.298 37.112C241.21 36.92 242.218 36.824 243.322 36.824C244.474 36.824 245.362 37.112 245.986 37.688C246.61 38.264 246.922 39.08 246.922 40.136C246.922 41.24 246.682 43.16 246.202 45.896C245.674 48.824 245.266 51.632 244.978 54.32C244.69 56.96 244.546 59.936 244.546 63.248C244.546 65.072 244.162 66.392 243.394 67.208C242.674 67.976 241.474 68.36 239.794 68.36C238.162 68.36 236.938 67.976 236.122 67.208C235.354 66.392 234.97 65.096 234.97 63.32L235.042 62.168C233.554 66.296 230.986 68.36 227.338 68.36ZM230.146 61.088C231.49 61.088 232.714 60.152 233.818 58.28C234.922 56.408 235.906 53.072 236.77 48.272L238.138 41C236.17 41.048 234.346 41.816 232.666 43.304C230.986 44.744 229.642 46.664 228.634 49.064C227.626 51.464 227.122 54.008 227.122 56.696C227.122 58.136 227.386 59.24 227.914 60.008C228.49 60.728 229.234 61.088 230.146 61.088ZM253.186 79.376C252.13 79.376 251.29 79.136 250.666 78.656C250.042 78.176 249.73 77.408 249.73 76.352C249.73 75.92 249.802 75.416 249.946 74.84C250.474 72.632 250.858 70.592 251.098 68.72C251.386 66.848 251.53 64.76 251.53 62.456C251.53 60.056 252.082 58.208 253.186 56.912C254.338 55.616 255.802 54.968 257.578 54.968C259.306 54.968 260.602 55.448 261.466 56.408C262.378 57.32 262.834 58.568 262.834 60.152C262.834 61.832 262.33 64.064 261.322 66.848C260.314 69.632 259.09 72.344 257.65 74.984C256.69 76.76 255.922 77.936 255.346 78.512C254.818 79.088 254.098 79.376 253.186 79.376ZM327.885 45.896C328.509 45.896 328.989 46.208 329.325 46.832C329.661 47.456 329.829 48.248 329.829 49.208C329.829 50.408 329.661 51.344 329.325 52.016C328.989 52.64 328.461 53.072 327.741 53.312C324.861 54.32 321.693 54.896 318.237 55.04C317.277 59.024 315.453 62.24 312.765 64.688C310.125 67.136 307.197 68.36 303.981 68.36C299.133 68.36 295.605 66.512 293.397 62.816C291.189 59.12 290.085 53.768 290.085 46.76C290.085 40.568 290.853 33.848 292.389 26.6C293.925 19.304 296.157 13.112 299.085 8.024C302.061 2.888 305.589 0.319996 309.669 0.319996C311.877 0.319996 313.653 1.28 314.997 3.2C316.341 5.072 317.013 7.52 317.013 10.544C317.013 14.48 316.269 18.392 314.781 22.28C313.293 26.168 310.821 30.248 307.365 34.52C310.581 34.76 313.197 36.104 315.213 38.552C317.229 40.952 318.429 43.928 318.813 47.48C321.069 47.336 323.757 46.856 326.877 46.04C327.165 45.944 327.501 45.896 327.885 45.896ZM308.013 7.448C307.053 7.448 305.997 8.888 304.845 11.768C303.741 14.6 302.709 18.464 301.749 23.36C300.789 28.256 300.069 33.608 299.589 39.416C302.757 33.608 305.277 28.496 307.149 24.08C309.069 19.616 310.029 15.656 310.029 12.2C310.029 10.664 309.837 9.488 309.453 8.672C309.117 7.856 308.637 7.448 308.013 7.448ZM304.269 60.728C305.757 60.728 307.077 60.104 308.229 58.856C309.381 57.608 310.149 55.808 310.533 53.456C309.045 52.448 307.893 51.128 307.077 49.496C306.309 47.864 305.925 46.136 305.925 44.312C305.925 43.64 306.021 42.728 306.213 41.576H305.997C304.029 41.576 302.373 42.56 301.029 44.528C299.733 46.448 299.085 49.04 299.085 52.304C299.085 55.04 299.589 57.128 300.597 58.568C301.653 60.008 302.877 60.728 304.269 60.728ZM355.724 51.944C356.348 51.944 356.828 52.232 357.164 52.808C357.548 53.384 357.74 54.176 357.74 55.184C357.74 57.104 357.284 58.592 356.372 59.648C354.596 61.808 352.076 63.8 348.812 65.624C345.596 67.448 342.14 68.36 338.444 68.36C333.404 68.36 329.492 66.992 326.708 64.256C323.924 61.52 322.532 57.776 322.532 53.024C322.532 49.712 323.228 46.64 324.62 43.808C326.012 40.928 327.932 38.648 330.38 36.968C332.876 35.288 335.684 34.448 338.804 34.448C341.588 34.448 343.82 35.288 345.5 36.968C347.18 38.6 348.02 40.832 348.02 43.664C348.02 46.976 346.82 49.832 344.42 52.232C342.068 54.584 338.06 56.456 332.396 57.848C333.596 60.056 335.876 61.16 339.236 61.16C341.396 61.16 343.844 60.416 346.58 58.928C349.364 57.392 351.764 55.4 353.78 52.952C354.356 52.28 355.004 51.944 355.724 51.944ZM337.58 41.504C335.804 41.504 334.292 42.536 333.044 44.6C331.844 46.664 331.244 49.16 331.244 52.088V52.232C334.076 51.56 336.308 50.552 337.94 49.208C339.572 47.864 340.388 46.304 340.388 44.528C340.388 43.616 340.124 42.896 339.596 42.368C339.116 41.792 338.444 41.504 337.58 41.504ZM356.99 68.36C355.166 68.36 353.87 67.4 353.102 65.48C352.382 63.56 352.022 60.488 352.022 56.264C352.022 50.024 352.91 44.096 354.686 38.48C355.118 37.088 355.814 36.08 356.774 35.456C357.782 34.784 359.174 34.448 360.95 34.448C361.91 34.448 362.582 34.568 362.966 34.808C363.35 35.048 363.542 35.504 363.542 36.176C363.542 36.944 363.182 38.672 362.462 41.36C361.982 43.28 361.598 44.96 361.31 46.4C361.022 47.84 360.782 49.616 360.59 51.728C362.174 47.6 363.95 44.24 365.918 41.648C367.886 39.056 369.806 37.208 371.678 36.104C373.598 35 375.35 34.448 376.934 34.448C378.47 34.448 379.622 34.856 380.39 35.672C381.206 36.44 381.614 37.592 381.614 39.128C381.614 40.376 381.35 42.728 380.822 46.184C380.342 49.112 379.958 51.896 379.67 54.536C379.382 57.128 379.238 60.032 379.238 63.248C379.238 65.072 378.854 66.392 378.086 67.208C377.366 67.976 376.166 68.36 374.486 68.36C372.902 68.36 371.75 67.952 371.03 67.136C370.31 66.32 369.95 65.096 369.95 63.464C369.95 61.544 370.286 58.376 370.958 53.96C371.534 50.12 371.822 47.672 371.822 46.616C371.822 45.848 371.558 45.464 371.03 45.464C370.406 45.464 369.518 46.28 368.366 47.912C367.262 49.496 366.11 51.608 364.91 54.248C363.758 56.888 362.822 59.672 362.102 62.6C361.574 64.856 360.95 66.392 360.23 67.208C359.558 67.976 358.478 68.36 356.99 68.36ZM437.92 51.944C438.544 51.944 439.024 52.232 439.36 52.808C439.744 53.384 439.936 54.176 439.936 55.184C439.936 57.104 439.48 58.592 438.568 59.648C436.792 61.808 434.272 63.8 431.008 65.624C427.792 67.448 424.336 68.36 420.64 68.36C415.6 68.36 411.688 66.992 408.904 64.256C406.12 61.52 404.728 57.776 404.728 53.024C404.728 49.712 405.424 46.64 406.816 43.808C408.208 40.928 410.128 38.648 412.576 36.968C415.072 35.288 417.88 34.448 421 34.448C423.784 34.448 426.016 35.288 427.696 36.968C429.376 38.6 430.216 40.832 430.216 43.664C430.216 46.976 429.016 49.832 426.616 52.232C424.264 54.584 420.256 56.456 414.592 57.848C415.792 60.056 418.072 61.16 421.432 61.16C423.592 61.16 426.04 60.416 428.776 58.928C431.56 57.392 433.96 55.4 435.976 52.952C436.552 52.28 437.2 51.944 437.92 51.944ZM419.776 41.504C418 41.504 416.488 42.536 415.24 44.6C414.04 46.664 413.44 49.16 413.44 52.088V52.232C416.272 51.56 418.504 50.552 420.136 49.208C421.768 47.864 422.584 46.304 422.584 44.528C422.584 43.616 422.32 42.896 421.792 42.368C421.312 41.792 420.64 41.504 419.776 41.504ZM439.185 68.36C437.361 68.36 436.065 67.4 435.297 65.48C434.577 63.56 434.217 60.488 434.217 56.264C434.217 50.024 435.105 44.096 436.881 38.48C437.313 37.088 438.009 36.08 438.969 35.456C439.977 34.784 441.369 34.448 443.145 34.448C444.105 34.448 444.777 34.568 445.161 34.808C445.545 35.048 445.737 35.504 445.737 36.176C445.737 36.944 445.377 38.672 444.657 41.36C444.177 43.28 443.793 44.96 443.505 46.4C443.217 47.792 442.977 49.544 442.785 51.656C444.081 47.912 445.617 44.744 447.393 42.152C449.217 39.56 451.065 37.64 452.937 36.392C454.857 35.096 456.657 34.448 458.337 34.448C460.017 34.448 461.193 34.832 461.865 35.6C462.585 36.368 462.945 37.544 462.945 39.128C462.945 40.664 462.489 43.448 461.577 47.48C461.193 49.208 460.929 50.504 460.785 51.368C463.185 45.464 465.849 41.168 468.777 38.48C471.705 35.792 474.441 34.448 476.985 34.448C480.105 34.448 481.665 36.008 481.665 39.128C481.665 41 481.137 44.384 480.081 49.28C479.169 53.456 478.713 56.216 478.713 57.56C478.713 59.48 479.409 60.44 480.801 60.44C481.761 60.44 482.889 59.864 484.185 58.712C485.529 57.512 487.305 55.592 489.513 52.952C490.089 52.28 490.737 51.944 491.457 51.944C492.081 51.944 492.561 52.232 492.897 52.808C493.281 53.384 493.473 54.176 493.473 55.184C493.473 57.104 493.017 58.592 492.105 59.648C490.041 62.192 487.809 64.28 485.409 65.912C483.057 67.544 480.369 68.36 477.345 68.36C474.897 68.36 473.049 67.664 471.801 66.272C470.553 64.832 469.929 62.768 469.929 60.08C469.929 58.736 470.265 56.336 470.937 52.88C471.561 49.856 471.873 47.768 471.873 46.616C471.873 45.848 471.609 45.464 471.081 45.464C470.457 45.464 469.569 46.28 468.417 47.912C467.265 49.496 466.113 51.608 464.961 54.248C463.809 56.888 462.873 59.672 462.153 62.6C461.625 64.904 461.001 66.44 460.281 67.208C459.609 67.976 458.505 68.36 456.969 68.36C455.385 68.36 454.185 67.616 453.369 66.128C452.601 64.592 452.217 62.744 452.217 60.584C452.217 58.76 452.457 56.12 452.937 52.664C453.321 49.592 453.513 47.576 453.513 46.616C453.513 45.848 453.249 45.464 452.721 45.464C452.001 45.464 451.089 46.328 449.985 48.056C448.881 49.784 447.801 51.992 446.745 54.68C445.737 57.368 444.921 60.008 444.297 62.6C443.769 64.856 443.145 66.392 442.425 67.208C441.753 67.976 440.673 68.36 439.185 68.36ZM492.763 68.36C490.939 68.36 489.643 67.4 488.875 65.48C488.155 63.56 487.795 60.488 487.795 56.264C487.795 50.024 488.683 44.096 490.459 38.48C490.891 37.088 491.587 36.08 492.547 35.456C493.555 34.784 494.947 34.448 496.723 34.448C497.683 34.448 498.355 34.568 498.739 34.808C499.123 35.048 499.315 35.504 499.315 36.176C499.315 36.944 498.955 38.672 498.235 41.36C497.755 43.28 497.371 44.96 497.083 46.4C496.795 47.84 496.555 49.616 496.363 51.728C497.947 47.6 499.723 44.24 501.691 41.648C503.659 39.056 505.579 37.208 507.451 36.104C509.371 35 511.123 34.448 512.707 34.448C515.827 34.448 517.387 36.008 517.387 39.128C517.387 39.752 517.171 41.264 516.739 43.664C516.355 45.584 516.163 46.784 516.163 47.264C516.163 48.944 516.763 49.784 517.963 49.784C519.307 49.784 521.035 48.728 523.147 46.616C523.771 45.992 524.419 45.68 525.091 45.68C525.715 45.68 526.195 45.968 526.531 46.544C526.915 47.072 527.107 47.792 527.107 48.704C527.107 50.48 526.627 51.872 525.667 52.88C524.323 54.272 522.739 55.472 520.915 56.48C519.139 57.44 517.243 57.92 515.227 57.92C512.683 57.92 510.739 57.272 509.395 55.976C508.099 54.68 507.451 52.928 507.451 50.72C507.451 50 507.523 49.28 507.667 48.56C507.763 47.6 507.811 46.952 507.811 46.616C507.811 45.848 507.547 45.464 507.019 45.464C506.299 45.464 505.339 46.28 504.139 47.912C502.987 49.496 501.835 51.608 500.683 54.248C499.531 56.888 498.595 59.672 497.875 62.6C497.347 64.856 496.723 66.392 496.003 67.208C495.331 67.976 494.251 68.36 492.763 68.36ZM546.193 54.104C546.817 54.104 547.297 54.392 547.633 54.968C548.017 55.544 548.209 56.336 548.209 57.344C548.209 59.072 547.801 60.56 546.985 61.808C545.641 63.872 543.865 65.48 541.657 66.632C539.497 67.784 536.905 68.36 533.881 68.36C529.273 68.36 525.697 66.992 523.153 64.256C520.609 61.472 519.337 57.728 519.337 53.024C519.337 49.712 520.033 46.64 521.425 43.808C522.817 40.928 524.737 38.648 527.185 36.968C529.681 35.288 532.489 34.448 535.609 34.448C538.393 34.448 540.625 35.288 542.305 36.968C543.985 38.6 544.825 40.832 544.825 43.664C544.825 46.976 543.625 49.832 541.225 52.232C538.873 54.584 534.841 56.456 529.129 57.848C530.281 60.056 532.225 61.16 534.961 61.16C536.929 61.16 538.537 60.704 539.785 59.792C541.081 58.88 542.569 57.344 544.249 55.184C544.825 54.464 545.473 54.104 546.193 54.104ZM534.385 41.504C532.609 41.504 531.097 42.536 529.849 44.6C528.649 46.664 528.049 49.16 528.049 52.088V52.232C530.881 51.56 533.113 50.552 534.745 49.208C536.377 47.864 537.193 46.304 537.193 44.528C537.193 43.616 536.929 42.896 536.401 42.368C535.921 41.792 535.249 41.504 534.385 41.504ZM610.689 51.944C611.313 51.944 611.793 52.232 612.129 52.808C612.513 53.384 612.705 54.176 612.705 55.184C612.705 57.104 612.249 58.592 611.337 59.648C609.177 62.288 606.993 64.4 604.785 65.984C602.577 67.568 599.961 68.36 596.937 68.36C593.241 68.36 590.265 67.304 588.009 65.192C585.753 63.08 584.625 60.272 584.625 56.768C584.625 54.896 585.585 53.552 587.505 52.736C589.617 51.824 591.129 50.864 592.041 49.856C592.953 48.8 593.409 47.528 593.409 46.04C593.409 45.176 593.217 44.528 592.833 44.096C592.497 43.664 592.065 43.448 591.537 43.448C590.241 43.448 588.801 44.384 587.217 46.256C585.681 48.128 584.241 50.552 582.897 53.528C581.553 56.456 580.497 59.48 579.729 62.6C579.201 64.856 578.577 66.392 577.857 67.208C577.185 67.976 576.105 68.36 574.617 68.36C573.129 68.36 572.025 67.832 571.305 66.776C570.633 65.672 570.177 63.992 569.937 61.736C569.697 59.48 569.577 56.168 569.577 51.8C569.577 44.408 570.321 36.704 571.809 28.688C573.345 20.672 575.577 13.952 578.505 8.528C581.481 3.056 585.033 0.319996 589.161 0.319996C591.369 0.319996 593.145 1.28 594.489 3.2C595.881 5.072 596.577 7.52 596.577 10.544C596.577 15.392 595.161 20.432 592.329 25.664C589.497 30.848 584.889 36.92 578.505 43.88C578.361 46.376 578.289 48.944 578.289 51.584C580.593 45.584 583.233 41.24 586.209 38.552C589.185 35.816 591.969 34.448 594.561 34.448C596.961 34.448 598.881 35.264 600.321 36.896C601.809 38.528 602.553 40.544 602.553 42.944C602.553 45.584 601.881 48.008 600.537 50.216C599.193 52.424 596.889 54.392 593.625 56.12C593.817 57.416 594.393 58.472 595.353 59.288C596.361 60.056 597.561 60.44 598.953 60.44C600.441 60.44 601.881 59.864 603.273 58.712C604.665 57.56 606.489 55.64 608.745 52.952C609.321 52.28 609.969 51.944 610.689 51.944ZM587.649 7.448C586.785 7.448 585.825 8.696 584.769 11.192C583.713 13.64 582.681 16.976 581.673 21.2C580.713 25.376 579.921 29.936 579.297 34.88C582.273 31.376 584.721 27.56 586.641 23.432C588.609 19.304 589.593 15.56 589.593 12.2C589.593 10.664 589.425 9.488 589.089 8.672C588.753 7.856 588.273 7.448 587.649 7.448ZM615.757 68.36C612.781 68.36 610.405 67.28 608.629 65.12C606.853 62.96 605.965 60.128 605.965 56.624C605.965 52.784 606.853 49.16 608.629 45.752C610.405 42.296 612.757 39.536 615.685 37.472C618.661 35.36 621.805 34.304 625.117 34.304C626.173 34.304 626.869 34.52 627.205 34.952C627.589 35.336 627.901 36.056 628.141 37.112C629.149 36.92 630.205 36.824 631.309 36.824C633.661 36.824 634.837 37.664 634.837 39.344C634.837 40.352 634.477 42.752 633.757 46.544C632.653 52.064 632.101 55.904 632.101 58.064C632.101 58.784 632.269 59.36 632.605 59.792C632.989 60.224 633.469 60.44 634.045 60.44C634.957 60.44 636.061 59.864 637.357 58.712C638.653 57.512 640.405 55.592 642.613 52.952C643.189 52.28 643.837 51.944 644.557 51.944C645.181 51.944 645.661 52.232 645.997 52.808C646.381 53.384 646.573 54.176 646.573 55.184C646.573 57.104 646.117 58.592 645.205 59.648C643.237 62.096 641.149 64.16 638.941 65.84C636.733 67.52 634.597 68.36 632.533 68.36C630.949 68.36 629.485 67.832 628.141 66.776C626.845 65.672 625.861 64.184 625.189 62.312C622.693 66.344 619.549 68.36 615.757 68.36ZM618.349 61.088C619.405 61.088 620.413 60.464 621.373 59.216C622.333 57.968 623.029 56.312 623.461 54.248L626.125 41C624.109 41.048 622.237 41.816 620.509 43.304C618.829 44.744 617.485 46.664 616.477 49.064C615.469 51.464 614.965 54.008 614.965 56.696C614.965 58.184 615.253 59.288 615.829 60.008C616.453 60.728 617.293 61.088 618.349 61.088ZM649.578 68.36C646.602 68.36 644.226 67.28 642.45 65.12C640.674 62.96 639.786 60.128 639.786 56.624C639.786 52.784 640.674 49.16 642.45 45.752C644.226 42.296 646.578 39.536 649.506 37.472C652.482 35.36 655.626 34.304 658.938 34.304C659.994 34.304 660.69 34.52 661.026 34.952C661.41 35.336 661.722 36.056 661.962 37.112C662.97 36.92 664.026 36.824 665.13 36.824C667.482 36.824 668.658 37.664 668.658 39.344C668.658 40.352 668.298 42.752 667.578 46.544C666.474 52.064 665.922 55.904 665.922 58.064C665.922 58.784 666.09 59.36 666.426 59.792C666.81 60.224 667.29 60.44 667.866 60.44C668.778 60.44 669.882 59.864 671.178 58.712C672.474 57.512 674.226 55.592 676.434 52.952C677.01 52.28 677.658 51.944 678.378 51.944C679.002 51.944 679.482 52.232 679.818 52.808C680.202 53.384 680.394 54.176 680.394 55.184C680.394 57.104 679.938 58.592 679.026 59.648C677.058 62.096 674.97 64.16 672.762 65.84C670.554 67.52 668.418 68.36 666.354 68.36C664.77 68.36 663.306 67.832 661.962 66.776C660.666 65.672 659.682 64.184 659.01 62.312C656.514 66.344 653.37 68.36 649.578 68.36ZM652.17 61.088C653.226 61.088 654.234 60.464 655.194 59.216C656.154 57.968 656.85 56.312 657.282 54.248L659.946 41C657.93 41.048 656.058 41.816 654.33 43.304C652.65 44.744 651.306 46.664 650.298 49.064C649.29 51.464 648.786 54.008 648.786 56.696C648.786 58.184 649.074 59.288 649.65 60.008C650.274 60.728 651.114 61.088 652.17 61.088ZM679.654 68.36C677.83 68.36 676.534 67.4 675.766 65.48C675.046 63.56 674.686 60.488 674.686 56.264C674.686 50.024 675.574 44.096 677.35 38.48C677.782 37.088 678.478 36.08 679.438 35.456C680.446 34.784 681.838 34.448 683.614 34.448C684.574 34.448 685.246 34.568 685.63 34.808C686.014 35.048 686.206 35.504 686.206 36.176C686.206 36.944 685.846 38.672 685.126 41.36C684.646 43.28 684.262 44.96 683.974 46.4C683.686 47.84 683.446 49.616 683.254 51.728C684.838 47.6 686.614 44.24 688.582 41.648C690.55 39.056 692.47 37.208 694.342 36.104C696.262 35 698.014 34.448 699.598 34.448C701.134 34.448 702.286 34.856 703.054 35.672C703.87 36.44 704.278 37.592 704.278 39.128C704.278 40.376 704.014 42.728 703.486 46.184C703.006 49.112 702.622 51.896 702.334 54.536C702.046 57.128 701.902 60.032 701.902 63.248C701.902 65.072 701.518 66.392 700.75 67.208C700.03 67.976 698.83 68.36 697.15 68.36C695.566 68.36 694.414 67.952 693.694 67.136C692.974 66.32 692.614 65.096 692.614 63.464C692.614 61.544 692.95 58.376 693.622 53.96C694.198 50.12 694.486 47.672 694.486 46.616C694.486 45.848 694.222 45.464 693.694 45.464C693.07 45.464 692.182 46.28 691.03 47.912C689.926 49.496 688.774 51.608 687.574 54.248C686.422 56.888 685.486 59.672 684.766 62.6C684.238 64.856 683.614 66.392 682.894 67.208C682.222 67.976 681.142 68.36 679.654 68.36ZM763.032 51.944C763.656 51.944 764.136 52.232 764.472 52.808C764.856 53.384 765.048 54.176 765.048 55.184C765.048 57.008 764.592 58.496 763.68 59.648C761.28 62.624 758.976 64.664 756.768 65.768C754.608 66.824 751.92 67.4 748.704 67.496L747.624 68.288C749.112 69.776 749.856 71.744 749.856 74.192C749.856 76.448 749.304 78.464 748.2 80.24C747.144 82.064 745.584 83.48 743.52 84.488C741.504 85.496 739.128 86 736.392 86C734.568 86 733.08 85.88 731.928 85.64C730.056 85.304 729.12 84.248 729.12 82.472C729.12 80.312 730.08 79.232 732 79.232C732.384 79.232 732.696 79.256 732.936 79.304C734.232 79.496 735.504 79.592 736.752 79.592C738.672 79.592 740.16 79.184 741.216 78.368C742.32 77.6 742.872 76.4 742.872 74.768C742.872 73.568 742.344 72.608 741.288 71.888C740.28 71.216 738.888 70.88 737.112 70.88C735.864 70.88 734.904 70.712 734.232 70.376C733.56 70.04 733.224 69.464 733.224 68.648C733.224 68.36 733.248 68.144 733.296 68C733.536 67.04 733.92 66.344 734.448 65.912C734.256 65.48 734.16 64.952 734.16 64.328C734.16 63.08 734.616 62 735.528 61.088C736.44 60.176 737.784 59.72 739.56 59.72C740.184 59.72 740.904 59.792 741.72 59.936C742.584 60.032 743.232 60.104 743.664 60.152C743.616 58.904 743.328 57.728 742.8 56.624C742.32 55.52 741.696 54.464 740.928 53.456C740.16 52.4 739.44 51.488 738.768 50.72C737.28 53.552 735.792 55.904 734.304 57.776C732.864 59.648 731.28 61.424 729.552 63.104C728.688 63.968 727.776 64.4 726.816 64.4C726.048 64.4 725.424 64.136 724.944 63.608C724.464 63.032 724.224 62.336 724.224 61.52C724.224 60.56 724.56 59.672 725.232 58.856L726.168 57.704C728.808 54.44 730.8 51.752 732.144 49.64C732.96 48.248 733.92 46.4 735.024 44.096C736.128 41.744 737.208 39.32 738.264 36.824C739.176 34.712 741.072 33.656 743.952 33.656C745.296 33.656 746.232 33.776 746.76 34.016C747.288 34.256 747.552 34.64 747.552 35.168C747.552 35.456 747.456 35.912 747.264 36.536C747.072 37.16 746.808 37.784 746.472 38.408C745.608 40.136 745.176 41.6 745.176 42.8C745.176 43.52 745.416 44.312 745.896 45.176C746.424 46.04 747.216 47.12 748.272 48.416C749.808 50.432 750.96 52.16 751.728 53.6C752.544 54.992 752.952 56.528 752.952 58.208C752.952 58.688 752.904 59.36 752.808 60.224C755.16 59.312 757.92 56.888 761.088 52.952C761.664 52.28 762.312 51.944 763.032 51.944ZM768.054 68.36C765.078 68.36 762.702 67.28 760.926 65.12C759.15 62.96 758.262 60.128 758.262 56.624C758.262 52.784 759.15 49.16 760.926 45.752C762.702 42.296 765.054 39.536 767.982 37.472C770.958 35.36 774.102 34.304 777.414 34.304C778.47 34.304 779.166 34.52 779.502 34.952C779.886 35.336 780.198 36.056 780.438 37.112C781.446 36.92 782.502 36.824 783.606 36.824C785.958 36.824 787.134 37.664 787.134 39.344C787.134 40.352 786.774 42.752 786.054 46.544C784.95 52.064 784.398 55.904 784.398 58.064C784.398 58.784 784.566 59.36 784.902 59.792C785.286 60.224 785.766 60.44 786.342 60.44C787.254 60.44 788.358 59.864 789.654 58.712C790.95 57.512 792.702 55.592 794.91 52.952C795.486 52.28 796.134 51.944 796.854 51.944C797.478 51.944 797.958 52.232 798.294 52.808C798.678 53.384 798.87 54.176 798.87 55.184C798.87 57.104 798.414 58.592 797.502 59.648C795.534 62.096 793.446 64.16 791.238 65.84C789.03 67.52 786.894 68.36 784.83 68.36C783.246 68.36 781.782 67.832 780.438 66.776C779.142 65.672 778.158 64.184 777.486 62.312C774.99 66.344 771.846 68.36 768.054 68.36ZM770.646 61.088C771.702 61.088 772.71 60.464 773.67 59.216C774.63 57.968 775.326 56.312 775.758 54.248L778.422 41C776.406 41.048 774.534 41.816 772.806 43.304C771.126 44.744 769.782 46.664 768.774 49.064C767.766 51.464 767.262 54.008 767.262 56.696C767.262 58.184 767.55 59.288 768.126 60.008C768.75 60.728 769.59 61.088 770.646 61.088ZM832.979 51.944C833.603 51.944 834.083 52.232 834.419 52.808C834.803 53.384 834.995 54.176 834.995 55.184C834.995 57.104 834.539 58.592 833.627 59.648C831.419 62.192 829.139 64.28 826.787 65.912C824.483 67.544 821.843 68.36 818.867 68.36C816.419 68.36 814.571 67.664 813.323 66.272C812.075 64.832 811.451 62.768 811.451 60.08C811.451 58.736 811.787 56.336 812.459 52.88C813.083 49.856 813.395 47.768 813.395 46.616C813.395 45.848 813.131 45.464 812.603 45.464C811.979 45.464 811.091 46.28 809.939 47.912C808.787 49.496 807.635 51.608 806.483 54.248C805.331 56.888 804.395 59.672 803.675 62.6C802.763 66.44 800.507 68.36 796.907 68.36C795.467 68.36 794.507 67.856 794.027 66.848C793.595 65.792 793.379 63.92 793.379 61.232C793.379 59.696 793.403 58.472 793.451 57.56L793.523 51.8C793.523 44.408 794.267 36.704 795.755 28.688C797.291 20.672 799.523 13.952 802.451 8.528C805.427 3.056 808.979 0.319996 813.107 0.319996C815.315 0.319996 817.091 1.28 818.435 3.2C819.827 5.072 820.523 7.52 820.523 10.544C820.523 15.392 819.107 20.432 816.275 25.664C813.443 30.848 808.835 36.92 802.451 43.88C802.307 46.376 802.235 48.944 802.235 51.584C803.819 47.504 805.571 44.192 807.491 41.648C809.459 39.056 811.379 37.208 813.251 36.104C815.171 35 816.923 34.448 818.507 34.448C821.627 34.448 823.187 36.008 823.187 39.128C823.187 41 822.659 44.384 821.603 49.28C820.691 53.456 820.235 56.216 820.235 57.56C820.235 59.48 820.931 60.44 822.323 60.44C823.283 60.44 824.411 59.864 825.707 58.712C827.051 57.512 828.827 55.592 831.035 52.952C831.611 52.28 832.259 51.944 832.979 51.944ZM811.595 7.448C810.731 7.448 809.771 8.696 808.715 11.192C807.659 13.64 806.627 16.976 805.619 21.2C804.659 25.376 803.867 29.936 803.243 34.88C806.219 31.376 808.667 27.56 810.587 23.432C812.555 19.304 813.539 15.56 813.539 12.2C813.539 10.664 813.371 9.488 813.035 8.672C812.699 7.856 812.219 7.448 811.595 7.448ZM838.591 29.696C836.575 29.696 835.063 29.24 834.055 28.328C833.047 27.368 832.543 26.048 832.543 24.368C832.543 22.688 833.191 21.296 834.487 20.192C835.831 19.04 837.487 18.464 839.455 18.464C841.231 18.464 842.671 18.896 843.775 19.76C844.879 20.624 845.431 21.848 845.431 23.432C845.431 25.352 844.807 26.888 843.559 28.04C842.311 29.144 840.655 29.696 838.591 29.696ZM838.015 68.36C834.895 68.36 832.615 67.256 831.175 65.048C829.783 62.84 829.087 59.912 829.087 56.264C829.087 54.104 829.351 51.344 829.879 47.984C830.455 44.576 831.175 41.408 832.039 38.48C832.471 36.944 833.047 35.888 833.767 35.312C834.487 34.736 835.639 34.448 837.223 34.448C839.671 34.448 840.895 35.264 840.895 36.896C840.895 38.096 840.439 40.88 839.527 45.248C838.375 50.528 837.799 54.104 837.799 55.976C837.799 57.416 837.991 58.52 838.375 59.288C838.759 60.056 839.407 60.44 840.319 60.44C841.183 60.44 842.263 59.84 843.559 58.64C844.855 57.44 846.583 55.544 848.743 52.952C849.319 52.28 849.967 51.944 850.687 51.944C851.311 51.944 851.791 52.232 852.127 52.808C852.511 53.384 852.703 54.176 852.703 55.184C852.703 57.104 852.247 58.592 851.335 59.648C846.583 65.456 842.143 68.36 838.015 68.36ZM851.99 68.36C850.166 68.36 848.87 67.4 848.102 65.48C847.382 63.56 847.022 60.488 847.022 56.264C847.022 50.024 847.91 44.096 849.686 38.48C850.118 37.088 850.814 36.08 851.774 35.456C852.782 34.784 854.174 34.448 855.95 34.448C856.91 34.448 857.582 34.568 857.966 34.808C858.35 35.048 858.542 35.504 858.542 36.176C858.542 36.944 858.182 38.672 857.462 41.36C856.982 43.28 856.598 44.96 856.31 46.4C856.022 47.84 855.782 49.616 855.59 51.728C857.174 47.6 858.95 44.24 860.918 41.648C862.886 39.056 864.806 37.208 866.678 36.104C868.598 35 870.35 34.448 871.934 34.448C873.47 34.448 874.622 34.856 875.39 35.672C876.206 36.44 876.614 37.592 876.614 39.128C876.614 40.376 876.35 42.728 875.822 46.184C875.342 49.112 874.958 51.896 874.67 54.536C874.382 57.128 874.238 60.032 874.238 63.248C874.238 65.072 873.854 66.392 873.086 67.208C872.366 67.976 871.166 68.36 869.486 68.36C867.902 68.36 866.75 67.952 866.03 67.136C865.31 66.32 864.95 65.096 864.95 63.464C864.95 61.544 865.286 58.376 865.958 53.96C866.534 50.12 866.822 47.672 866.822 46.616C866.822 45.848 866.558 45.464 866.03 45.464C865.406 45.464 864.518 46.28 863.366 47.912C862.262 49.496 861.11 51.608 859.91 54.248C858.758 56.888 857.822 59.672 857.102 62.6C856.574 64.856 855.95 66.392 855.23 67.208C854.558 67.976 853.478 68.36 851.99 68.36Z" fill="black"/>
</svg>
