<svg width="473" height="86" viewBox="0 0 473 86" fill="none" xmlns="http://www.w3.org/2000/svg">
<path d="M33.568 51.944C34.192 51.944 34.672 52.232 35.008 52.808C35.392 53.384 35.584 54.176 35.584 55.184C35.584 57.104 35.128 58.592 34.216 59.648C32.44 61.808 29.92 63.8 26.656 65.624C23.44 67.448 19.984 68.36 16.288 68.36C11.248 68.36 7.336 66.992 4.552 64.256C1.768 61.52 0.376 57.776 0.376 53.024C0.376 49.712 1.072 46.64 2.464 43.808C3.856 40.928 5.776 38.648 8.224 36.968C10.72 35.288 13.528 34.448 16.648 34.448C19.432 34.448 21.664 35.288 23.344 36.968C25.024 38.6 25.864 40.832 25.864 43.664C25.864 46.976 24.664 49.832 22.264 52.232C19.912 54.584 15.904 56.456 10.24 57.848C11.44 60.056 13.72 61.16 17.08 61.16C19.24 61.16 21.688 60.416 24.424 58.928C27.208 57.392 29.608 55.4 31.624 52.952C32.2 52.28 32.848 51.944 33.568 51.944ZM15.424 41.504C13.648 41.504 12.136 42.536 10.888 44.6C9.688 46.664 9.088 49.16 9.088 52.088V52.232C11.92 51.56 14.152 50.552 15.784 49.208C17.416 47.864 18.232 46.304 18.232 44.528C18.232 43.616 17.968 42.896 17.44 42.368C16.96 41.792 16.288 41.504 15.424 41.504ZM34.8336 68.36C33.0096 68.36 31.7136 67.4 30.9456 65.48C30.2256 63.56 29.8656 60.488 29.8656 56.264C29.8656 50.024 30.7536 44.096 32.5296 38.48C32.9616 37.088 33.6576 36.08 34.6176 35.456C35.6256 34.784 37.0176 34.448 38.7936 34.448C39.7536 34.448 40.4256 34.568 40.8096 34.808C41.1936 35.048 41.3856 35.504 41.3856 36.176C41.3856 36.944 41.0256 38.672 40.3056 41.36C39.8256 43.28 39.4416 44.96 39.1536 46.4C38.8656 47.792 38.6256 49.544 38.4336 51.656C39.7296 47.912 41.2656 44.744 43.0416 42.152C44.8656 39.56 46.7136 37.64 48.5856 36.392C50.5056 35.096 52.3056 34.448 53.9856 34.448C55.6656 34.448 56.8416 34.832 57.5136 35.6C58.2336 36.368 58.5936 37.544 58.5936 39.128C58.5936 40.664 58.1376 43.448 57.2256 47.48C56.8416 49.208 56.5776 50.504 56.4336 51.368C58.8336 45.464 61.4976 41.168 64.4256 38.48C67.3536 35.792 70.0896 34.448 72.6336 34.448C75.7536 34.448 77.3136 36.008 77.3136 39.128C77.3136 41 76.7856 44.384 75.7296 49.28C74.8176 53.456 74.3616 56.216 74.3616 57.56C74.3616 59.48 75.0576 60.44 76.4496 60.44C77.4096 60.44 78.5376 59.864 79.8336 58.712C81.1776 57.512 82.9536 55.592 85.1616 52.952C85.7376 52.28 86.3856 51.944 87.1056 51.944C87.7296 51.944 88.2096 52.232 88.5456 52.808C88.9296 53.384 89.1216 54.176 89.1216 55.184C89.1216 57.104 88.6656 58.592 87.7536 59.648C85.6896 62.192 83.4576 64.28 81.0576 65.912C78.7056 67.544 76.0176 68.36 72.9936 68.36C70.5456 68.36 68.6976 67.664 67.4496 66.272C66.2016 64.832 65.5776 62.768 65.5776 60.08C65.5776 58.736 65.9136 56.336 66.5856 52.88C67.2096 49.856 67.5216 47.768 67.5216 46.616C67.5216 45.848 67.2576 45.464 66.7296 45.464C66.1056 45.464 65.2176 46.28 64.0656 47.912C62.9136 49.496 61.7616 51.608 60.6096 54.248C59.4576 56.888 58.5216 59.672 57.8016 62.6C57.2736 64.904 56.6496 66.44 55.9296 67.208C55.2576 67.976 54.1536 68.36 52.6176 68.36C51.0336 68.36 49.8336 67.616 49.0176 66.128C48.2496 64.592 47.8656 62.744 47.8656 60.584C47.8656 58.76 48.1056 56.12 48.5856 52.664C48.9696 49.592 49.1616 47.576 49.1616 46.616C49.1616 45.848 48.8976 45.464 48.3696 45.464C47.6496 45.464 46.7376 46.328 45.6336 48.056C44.5296 49.784 43.4496 51.992 42.3936 54.68C41.3856 57.368 40.5696 60.008 39.9456 62.6C39.4176 64.856 38.7936 66.392 38.0736 67.208C37.4016 67.976 36.3216 68.36 34.8336 68.36ZM88.4118 68.36C86.5878 68.36 85.2918 67.4 84.5238 65.48C83.8038 63.56 83.4438 60.488 83.4438 56.264C83.4438 50.024 84.3318 44.096 86.1078 38.48C86.5398 37.088 87.2358 36.08 88.1958 35.456C89.2038 34.784 90.5958 34.448 92.3718 34.448C93.3318 34.448 94.0038 34.568 94.3878 34.808C94.7718 35.048 94.9638 35.504 94.9638 36.176C94.9638 36.944 94.6038 38.672 93.8838 41.36C93.4038 43.28 93.0198 44.96 92.7318 46.4C92.4438 47.84 92.2038 49.616 92.0118 51.728C93.5958 47.6 95.3718 44.24 97.3398 41.648C99.3078 39.056 101.228 37.208 103.1 36.104C105.02 35 106.772 34.448 108.356 34.448C111.476 34.448 113.036 36.008 113.036 39.128C113.036 39.752 112.82 41.264 112.388 43.664C112.004 45.584 111.812 46.784 111.812 47.264C111.812 48.944 112.412 49.784 113.612 49.784C114.956 49.784 116.684 48.728 118.796 46.616C119.42 45.992 120.068 45.68 120.74 45.68C121.364 45.68 121.844 45.968 122.18 46.544C122.564 47.072 122.756 47.792 122.756 48.704C122.756 50.48 122.276 51.872 121.316 52.88C119.972 54.272 118.388 55.472 116.564 56.48C114.788 57.44 112.892 57.92 110.876 57.92C108.332 57.92 106.388 57.272 105.044 55.976C103.748 54.68 103.1 52.928 103.1 50.72C103.1 50 103.172 49.28 103.316 48.56C103.412 47.6 103.46 46.952 103.46 46.616C103.46 45.848 103.196 45.464 102.668 45.464C101.948 45.464 100.988 46.28 99.7878 47.912C98.6358 49.496 97.4838 51.608 96.3318 54.248C95.1798 56.888 94.2438 59.672 93.5238 62.6C92.9958 64.856 92.3718 66.392 91.6518 67.208C90.9798 67.976 89.8998 68.36 88.4118 68.36ZM141.841 54.104C142.465 54.104 142.945 54.392 143.281 54.968C143.665 55.544 143.857 56.336 143.857 57.344C143.857 59.072 143.449 60.56 142.633 61.808C141.289 63.872 139.513 65.48 137.305 66.632C135.145 67.784 132.553 68.36 129.529 68.36C124.921 68.36 121.345 66.992 118.801 64.256C116.257 61.472 114.985 57.728 114.985 53.024C114.985 49.712 115.681 46.64 117.073 43.808C118.465 40.928 120.385 38.648 122.833 36.968C125.329 35.288 128.137 34.448 131.257 34.448C134.041 34.448 136.273 35.288 137.953 36.968C139.633 38.6 140.473 40.832 140.473 43.664C140.473 46.976 139.273 49.832 136.873 52.232C134.521 54.584 130.489 56.456 124.777 57.848C125.929 60.056 127.873 61.16 130.609 61.16C132.577 61.16 134.185 60.704 135.433 59.792C136.729 58.88 138.217 57.344 139.897 55.184C140.473 54.464 141.121 54.104 141.841 54.104ZM130.033 41.504C128.257 41.504 126.745 42.536 125.497 44.6C124.297 46.664 123.697 49.16 123.697 52.088V52.232C126.529 51.56 128.761 50.552 130.393 49.208C132.025 47.864 132.841 46.304 132.841 44.528C132.841 43.616 132.577 42.896 132.049 42.368C131.569 41.792 130.897 41.504 130.033 41.504ZM206.338 51.944C206.962 51.944 207.442 52.232 207.778 52.808C208.162 53.384 208.354 54.176 208.354 55.184C208.354 57.104 207.898 58.592 206.986 59.648C204.826 62.288 202.642 64.4 200.434 65.984C198.226 67.568 195.61 68.36 192.586 68.36C188.89 68.36 185.914 67.304 183.658 65.192C181.402 63.08 180.274 60.272 180.274 56.768C180.274 54.896 181.234 53.552 183.154 52.736C185.266 51.824 186.778 50.864 187.69 49.856C188.602 48.8 189.058 47.528 189.058 46.04C189.058 45.176 188.866 44.528 188.482 44.096C188.146 43.664 187.714 43.448 187.186 43.448C185.89 43.448 184.45 44.384 182.866 46.256C181.33 48.128 179.89 50.552 178.546 53.528C177.202 56.456 176.146 59.48 175.378 62.6C174.85 64.856 174.226 66.392 173.506 67.208C172.834 67.976 171.754 68.36 170.266 68.36C168.778 68.36 167.674 67.832 166.954 66.776C166.282 65.672 165.826 63.992 165.586 61.736C165.346 59.48 165.226 56.168 165.226 51.8C165.226 44.408 165.97 36.704 167.458 28.688C168.994 20.672 171.226 13.952 174.154 8.528C177.13 3.056 180.682 0.319996 184.81 0.319996C187.018 0.319996 188.794 1.28 190.138 3.2C191.53 5.072 192.226 7.52 192.226 10.544C192.226 15.392 190.81 20.432 187.978 25.664C185.146 30.848 180.538 36.92 174.154 43.88C174.01 46.376 173.938 48.944 173.938 51.584C176.242 45.584 178.882 41.24 181.858 38.552C184.834 35.816 187.618 34.448 190.21 34.448C192.61 34.448 194.53 35.264 195.97 36.896C197.458 38.528 198.202 40.544 198.202 42.944C198.202 45.584 197.53 48.008 196.186 50.216C194.842 52.424 192.538 54.392 189.274 56.12C189.466 57.416 190.042 58.472 191.002 59.288C192.01 60.056 193.21 60.44 194.602 60.44C196.09 60.44 197.53 59.864 198.922 58.712C200.314 57.56 202.138 55.64 204.394 52.952C204.97 52.28 205.618 51.944 206.338 51.944ZM183.298 7.448C182.434 7.448 181.474 8.696 180.418 11.192C179.362 13.64 178.33 16.976 177.322 21.2C176.362 25.376 175.57 29.936 174.946 34.88C177.922 31.376 180.37 27.56 182.29 23.432C184.258 19.304 185.242 15.56 185.242 12.2C185.242 10.664 185.074 9.488 184.738 8.672C184.402 7.856 183.922 7.448 183.298 7.448ZM211.406 68.36C208.43 68.36 206.054 67.28 204.278 65.12C202.502 62.96 201.614 60.128 201.614 56.624C201.614 52.784 202.502 49.16 204.278 45.752C206.054 42.296 208.406 39.536 211.334 37.472C214.31 35.36 217.454 34.304 220.766 34.304C221.822 34.304 222.518 34.52 222.854 34.952C223.238 35.336 223.55 36.056 223.79 37.112C224.798 36.92 225.854 36.824 226.958 36.824C229.31 36.824 230.486 37.664 230.486 39.344C230.486 40.352 230.126 42.752 229.406 46.544C228.302 52.064 227.75 55.904 227.75 58.064C227.75 58.784 227.918 59.36 228.254 59.792C228.638 60.224 229.118 60.44 229.694 60.44C230.606 60.44 231.71 59.864 233.006 58.712C234.302 57.512 236.054 55.592 238.262 52.952C238.838 52.28 239.486 51.944 240.206 51.944C240.83 51.944 241.31 52.232 241.646 52.808C242.03 53.384 242.222 54.176 242.222 55.184C242.222 57.104 241.766 58.592 240.854 59.648C238.886 62.096 236.798 64.16 234.59 65.84C232.382 67.52 230.246 68.36 228.182 68.36C226.598 68.36 225.134 67.832 223.79 66.776C222.494 65.672 221.51 64.184 220.838 62.312C218.342 66.344 215.198 68.36 211.406 68.36ZM213.998 61.088C215.054 61.088 216.062 60.464 217.022 59.216C217.982 57.968 218.678 56.312 219.11 54.248L221.774 41C219.758 41.048 217.886 41.816 216.158 43.304C214.478 44.744 213.134 46.664 212.126 49.064C211.118 51.464 210.614 54.008 210.614 56.696C210.614 58.184 210.902 59.288 211.478 60.008C212.102 60.728 212.942 61.088 213.998 61.088ZM245.226 68.36C242.25 68.36 239.874 67.28 238.098 65.12C236.322 62.96 235.434 60.128 235.434 56.624C235.434 52.784 236.322 49.16 238.098 45.752C239.874 42.296 242.226 39.536 245.154 37.472C248.13 35.36 251.274 34.304 254.586 34.304C255.642 34.304 256.338 34.52 256.674 34.952C257.058 35.336 257.37 36.056 257.61 37.112C258.618 36.92 259.674 36.824 260.778 36.824C263.13 36.824 264.306 37.664 264.306 39.344C264.306 40.352 263.946 42.752 263.226 46.544C262.122 52.064 261.57 55.904 261.57 58.064C261.57 58.784 261.738 59.36 262.074 59.792C262.458 60.224 262.938 60.44 263.514 60.44C264.426 60.44 265.53 59.864 266.826 58.712C268.122 57.512 269.874 55.592 272.082 52.952C272.658 52.28 273.306 51.944 274.026 51.944C274.65 51.944 275.13 52.232 275.466 52.808C275.85 53.384 276.042 54.176 276.042 55.184C276.042 57.104 275.586 58.592 274.674 59.648C272.706 62.096 270.618 64.16 268.41 65.84C266.202 67.52 264.066 68.36 262.002 68.36C260.418 68.36 258.954 67.832 257.61 66.776C256.314 65.672 255.33 64.184 254.658 62.312C252.162 66.344 249.018 68.36 245.226 68.36ZM247.818 61.088C248.874 61.088 249.882 60.464 250.842 59.216C251.802 57.968 252.498 56.312 252.93 54.248L255.594 41C253.578 41.048 251.706 41.816 249.978 43.304C248.298 44.744 246.954 46.664 245.946 49.064C244.938 51.464 244.434 54.008 244.434 56.696C244.434 58.184 244.722 59.288 245.298 60.008C245.922 60.728 246.762 61.088 247.818 61.088ZM275.302 68.36C273.478 68.36 272.182 67.4 271.414 65.48C270.694 63.56 270.334 60.488 270.334 56.264C270.334 50.024 271.222 44.096 272.998 38.48C273.43 37.088 274.126 36.08 275.086 35.456C276.094 34.784 277.486 34.448 279.262 34.448C280.222 34.448 280.894 34.568 281.278 34.808C281.662 35.048 281.854 35.504 281.854 36.176C281.854 36.944 281.494 38.672 280.774 41.36C280.294 43.28 279.91 44.96 279.622 46.4C279.334 47.84 279.094 49.616 278.902 51.728C280.486 47.6 282.262 44.24 284.23 41.648C286.198 39.056 288.118 37.208 289.99 36.104C291.91 35 293.662 34.448 295.246 34.448C296.782 34.448 297.934 34.856 298.702 35.672C299.518 36.44 299.926 37.592 299.926 39.128C299.926 40.376 299.662 42.728 299.134 46.184C298.654 49.112 298.27 51.896 297.982 54.536C297.694 57.128 297.55 60.032 297.55 63.248C297.55 65.072 297.166 66.392 296.398 67.208C295.678 67.976 294.478 68.36 292.798 68.36C291.214 68.36 290.062 67.952 289.342 67.136C288.622 66.32 288.262 65.096 288.262 63.464C288.262 61.544 288.598 58.376 289.27 53.96C289.846 50.12 290.134 47.672 290.134 46.616C290.134 45.848 289.87 45.464 289.342 45.464C288.718 45.464 287.83 46.28 286.678 47.912C285.574 49.496 284.422 51.608 283.222 54.248C282.07 56.888 281.134 59.672 280.414 62.6C279.886 64.856 279.262 66.392 278.542 67.208C277.87 67.976 276.79 68.36 275.302 68.36ZM358.68 51.944C359.304 51.944 359.784 52.232 360.12 52.808C360.504 53.384 360.696 54.176 360.696 55.184C360.696 57.008 360.24 58.496 359.328 59.648C356.928 62.624 354.624 64.664 352.416 65.768C350.256 66.824 347.568 67.4 344.352 67.496L343.272 68.288C344.76 69.776 345.504 71.744 345.504 74.192C345.504 76.448 344.952 78.464 343.848 80.24C342.792 82.064 341.232 83.48 339.168 84.488C337.152 85.496 334.776 86 332.04 86C330.216 86 328.728 85.88 327.576 85.64C325.704 85.304 324.768 84.248 324.768 82.472C324.768 80.312 325.728 79.232 327.648 79.232C328.032 79.232 328.344 79.256 328.584 79.304C329.88 79.496 331.152 79.592 332.4 79.592C334.32 79.592 335.808 79.184 336.864 78.368C337.968 77.6 338.52 76.4 338.52 74.768C338.52 73.568 337.992 72.608 336.936 71.888C335.928 71.216 334.536 70.88 332.76 70.88C331.512 70.88 330.552 70.712 329.88 70.376C329.208 70.04 328.872 69.464 328.872 68.648C328.872 68.36 328.896 68.144 328.944 68C329.184 67.04 329.568 66.344 330.096 65.912C329.904 65.48 329.808 64.952 329.808 64.328C329.808 63.08 330.264 62 331.176 61.088C332.088 60.176 333.432 59.72 335.208 59.72C335.832 59.72 336.552 59.792 337.368 59.936C338.232 60.032 338.88 60.104 339.312 60.152C339.264 58.904 338.976 57.728 338.448 56.624C337.968 55.52 337.344 54.464 336.576 53.456C335.808 52.4 335.088 51.488 334.416 50.72C332.928 53.552 331.44 55.904 329.952 57.776C328.512 59.648 326.928 61.424 325.2 63.104C324.336 63.968 323.424 64.4 322.464 64.4C321.696 64.4 321.072 64.136 320.592 63.608C320.112 63.032 319.872 62.336 319.872 61.52C319.872 60.56 320.208 59.672 320.88 58.856L321.816 57.704C324.456 54.44 326.448 51.752 327.792 49.64C328.608 48.248 329.568 46.4 330.672 44.096C331.776 41.744 332.856 39.32 333.912 36.824C334.824 34.712 336.72 33.656 339.6 33.656C340.944 33.656 341.88 33.776 342.408 34.016C342.936 34.256 343.2 34.64 343.2 35.168C343.2 35.456 343.104 35.912 342.912 36.536C342.72 37.16 342.456 37.784 342.12 38.408C341.256 40.136 340.824 41.6 340.824 42.8C340.824 43.52 341.064 44.312 341.544 45.176C342.072 46.04 342.864 47.12 343.92 48.416C345.456 50.432 346.608 52.16 347.376 53.6C348.192 54.992 348.6 56.528 348.6 58.208C348.6 58.688 348.552 59.36 348.456 60.224C350.808 59.312 353.568 56.888 356.736 52.952C357.312 52.28 357.96 51.944 358.68 51.944ZM363.703 68.36C360.727 68.36 358.351 67.28 356.575 65.12C354.799 62.96 353.911 60.128 353.911 56.624C353.911 52.784 354.799 49.16 356.575 45.752C358.351 42.296 360.703 39.536 363.631 37.472C366.607 35.36 369.751 34.304 373.063 34.304C374.119 34.304 374.815 34.52 375.151 34.952C375.535 35.336 375.847 36.056 376.087 37.112C377.095 36.92 378.151 36.824 379.255 36.824C381.607 36.824 382.783 37.664 382.783 39.344C382.783 40.352 382.423 42.752 381.703 46.544C380.599 52.064 380.047 55.904 380.047 58.064C380.047 58.784 380.215 59.36 380.551 59.792C380.935 60.224 381.415 60.44 381.991 60.44C382.903 60.44 384.007 59.864 385.303 58.712C386.599 57.512 388.351 55.592 390.559 52.952C391.135 52.28 391.783 51.944 392.503 51.944C393.127 51.944 393.607 52.232 393.943 52.808C394.327 53.384 394.519 54.176 394.519 55.184C394.519 57.104 394.063 58.592 393.151 59.648C391.183 62.096 389.095 64.16 386.887 65.84C384.679 67.52 382.543 68.36 380.479 68.36C378.895 68.36 377.431 67.832 376.087 66.776C374.791 65.672 373.807 64.184 373.135 62.312C370.639 66.344 367.495 68.36 363.703 68.36ZM366.295 61.088C367.351 61.088 368.359 60.464 369.319 59.216C370.279 57.968 370.975 56.312 371.407 54.248L374.071 41C372.055 41.048 370.183 41.816 368.455 43.304C366.775 44.744 365.431 46.664 364.423 49.064C363.415 51.464 362.911 54.008 362.911 56.696C362.911 58.184 363.199 59.288 363.775 60.008C364.399 60.728 365.239 61.088 366.295 61.088ZM428.627 51.944C429.251 51.944 429.731 52.232 430.067 52.808C430.451 53.384 430.643 54.176 430.643 55.184C430.643 57.104 430.187 58.592 429.275 59.648C427.067 62.192 424.787 64.28 422.435 65.912C420.131 67.544 417.491 68.36 414.515 68.36C412.067 68.36 410.219 67.664 408.971 66.272C407.723 64.832 407.099 62.768 407.099 60.08C407.099 58.736 407.435 56.336 408.107 52.88C408.731 49.856 409.043 47.768 409.043 46.616C409.043 45.848 408.779 45.464 408.251 45.464C407.627 45.464 406.739 46.28 405.587 47.912C404.435 49.496 403.283 51.608 402.131 54.248C400.979 56.888 400.043 59.672 399.323 62.6C398.411 66.44 396.155 68.36 392.555 68.36C391.115 68.36 390.155 67.856 389.675 66.848C389.243 65.792 389.027 63.92 389.027 61.232C389.027 59.696 389.051 58.472 389.099 57.56L389.171 51.8C389.171 44.408 389.915 36.704 391.403 28.688C392.939 20.672 395.171 13.952 398.099 8.528C401.075 3.056 404.627 0.319996 408.755 0.319996C410.963 0.319996 412.739 1.28 414.083 3.2C415.475 5.072 416.171 7.52 416.171 10.544C416.171 15.392 414.755 20.432 411.923 25.664C409.091 30.848 404.483 36.92 398.099 43.88C397.955 46.376 397.883 48.944 397.883 51.584C399.467 47.504 401.219 44.192 403.139 41.648C405.107 39.056 407.027 37.208 408.899 36.104C410.819 35 412.571 34.448 414.155 34.448C417.275 34.448 418.835 36.008 418.835 39.128C418.835 41 418.307 44.384 417.251 49.28C416.339 53.456 415.883 56.216 415.883 57.56C415.883 59.48 416.579 60.44 417.971 60.44C418.931 60.44 420.059 59.864 421.355 58.712C422.699 57.512 424.475 55.592 426.683 52.952C427.259 52.28 427.907 51.944 428.627 51.944ZM407.243 7.448C406.379 7.448 405.419 8.696 404.363 11.192C403.307 13.64 402.275 16.976 401.267 21.2C400.307 25.376 399.515 29.936 398.891 34.88C401.867 31.376 404.315 27.56 406.235 23.432C408.203 19.304 409.187 15.56 409.187 12.2C409.187 10.664 409.019 9.488 408.683 8.672C408.347 7.856 407.867 7.448 407.243 7.448ZM434.24 29.696C432.224 29.696 430.712 29.24 429.704 28.328C428.696 27.368 428.192 26.048 428.192 24.368C428.192 22.688 428.84 21.296 430.136 20.192C431.48 19.04 433.136 18.464 435.104 18.464C436.88 18.464 438.32 18.896 439.424 19.76C440.528 20.624 441.08 21.848 441.08 23.432C441.08 25.352 440.456 26.888 439.208 28.04C437.96 29.144 436.304 29.696 434.24 29.696ZM433.664 68.36C430.544 68.36 428.264 67.256 426.824 65.048C425.432 62.84 424.736 59.912 424.736 56.264C424.736 54.104 425 51.344 425.528 47.984C426.104 44.576 426.824 41.408 427.688 38.48C428.12 36.944 428.696 35.888 429.416 35.312C430.136 34.736 431.288 34.448 432.872 34.448C435.32 34.448 436.544 35.264 436.544 36.896C436.544 38.096 436.088 40.88 435.176 45.248C434.024 50.528 433.448 54.104 433.448 55.976C433.448 57.416 433.64 58.52 434.024 59.288C434.408 60.056 435.056 60.44 435.968 60.44C436.832 60.44 437.912 59.84 439.208 58.64C440.504 57.44 442.232 55.544 444.392 52.952C444.968 52.28 445.616 51.944 446.336 51.944C446.96 51.944 447.44 52.232 447.776 52.808C448.16 53.384 448.352 54.176 448.352 55.184C448.352 57.104 447.896 58.592 446.984 59.648C442.232 65.456 437.792 68.36 433.664 68.36ZM447.638 68.36C445.814 68.36 444.518 67.4 443.75 65.48C443.03 63.56 442.67 60.488 442.67 56.264C442.67 50.024 443.558 44.096 445.334 38.48C445.766 37.088 446.462 36.08 447.422 35.456C448.43 34.784 449.822 34.448 451.598 34.448C452.558 34.448 453.23 34.568 453.614 34.808C453.998 35.048 454.19 35.504 454.19 36.176C454.19 36.944 453.83 38.672 453.11 41.36C452.63 43.28 452.246 44.96 451.958 46.4C451.67 47.84 451.43 49.616 451.238 51.728C452.822 47.6 454.598 44.24 456.566 41.648C458.534 39.056 460.454 37.208 462.326 36.104C464.246 35 465.998 34.448 467.582 34.448C469.118 34.448 470.27 34.856 471.038 35.672C471.854 36.44 472.262 37.592 472.262 39.128C472.262 40.376 471.998 42.728 471.47 46.184C470.99 49.112 470.606 51.896 470.318 54.536C470.03 57.128 469.886 60.032 469.886 63.248C469.886 65.072 469.502 66.392 468.734 67.208C468.014 67.976 466.814 68.36 465.134 68.36C463.55 68.36 462.398 67.952 461.678 67.136C460.958 66.32 460.598 65.096 460.598 63.464C460.598 61.544 460.934 58.376 461.606 53.96C462.182 50.12 462.47 47.672 462.47 46.616C462.47 45.848 462.206 45.464 461.678 45.464C461.054 45.464 460.166 46.28 459.014 47.912C457.91 49.496 456.758 51.608 455.558 54.248C454.406 56.888 453.47 59.672 452.75 62.6C452.222 64.856 451.598 66.392 450.878 67.208C450.206 67.976 449.126 68.36 447.638 68.36Z" fill="black"/>
</svg>
