<svg width="382" height="80" viewBox="0 0 382 80" fill="none" xmlns="http://www.w3.org/2000/svg">
<path d="M5.568 68.36C3.744 68.36 2.448 67.4 1.68 65.48C0.96 63.56 0.6 60.488 0.6 56.264C0.6 50.024 1.488 44.096 3.264 38.48C3.696 37.088 4.392 36.08 5.352 35.456C6.36 34.784 7.752 34.448 9.528 34.448C10.488 34.448 11.16 34.568 11.544 34.808C11.928 35.048 12.12 35.504 12.12 36.176C12.12 36.944 11.76 38.672 11.04 41.36C10.56 43.28 10.176 44.96 9.888 46.4C9.6 47.792 9.36 49.544 9.168 51.656C10.464 47.912 12 44.744 13.776 42.152C15.6 39.56 17.448 37.64 19.32 36.392C21.24 35.096 23.04 34.448 24.72 34.448C26.4 34.448 27.576 34.832 28.248 35.6C28.968 36.368 29.328 37.544 29.328 39.128C29.328 40.664 28.872 43.448 27.96 47.48C27.576 49.208 27.312 50.504 27.168 51.368C29.568 45.464 32.232 41.168 35.16 38.48C38.088 35.792 40.824 34.448 43.368 34.448C46.488 34.448 48.048 36.008 48.048 39.128C48.048 41 47.52 44.384 46.464 49.28C45.552 53.456 45.096 56.216 45.096 57.56C45.096 59.48 45.792 60.44 47.184 60.44C48.144 60.44 49.272 59.864 50.568 58.712C51.912 57.512 53.688 55.592 55.896 52.952C56.472 52.28 57.12 51.944 57.84 51.944C58.464 51.944 58.944 52.232 59.28 52.808C59.664 53.384 59.856 54.176 59.856 55.184C59.856 57.104 59.4 58.592 58.488 59.648C56.424 62.192 54.192 64.28 51.792 65.912C49.44 67.544 46.752 68.36 43.728 68.36C41.28 68.36 39.432 67.664 38.184 66.272C36.936 64.832 36.312 62.768 36.312 60.08C36.312 58.736 36.648 56.336 37.32 52.88C37.944 49.856 38.256 47.768 38.256 46.616C38.256 45.848 37.992 45.464 37.464 45.464C36.84 45.464 35.952 46.28 34.8 47.912C33.648 49.496 32.496 51.608 31.344 54.248C30.192 56.888 29.256 59.672 28.536 62.6C28.008 64.904 27.384 66.44 26.664 67.208C25.992 67.976 24.888 68.36 23.352 68.36C21.768 68.36 20.568 67.616 19.752 66.128C18.984 64.592 18.6 62.744 18.6 60.584C18.6 58.76 18.84 56.12 19.32 52.664C19.704 49.592 19.896 47.576 19.896 46.616C19.896 45.848 19.632 45.464 19.104 45.464C18.384 45.464 17.472 46.328 16.368 48.056C15.264 49.784 14.184 51.992 13.128 54.68C12.12 57.368 11.304 60.008 10.68 62.6C10.152 64.856 9.528 66.392 8.808 67.208C8.136 67.976 7.056 68.36 5.568 68.36ZM86.1461 51.944C86.7701 51.944 87.2501 52.232 87.5861 52.808C87.9701 53.384 88.1621 54.176 88.1621 55.184C88.1621 57.104 87.7061 58.592 86.7941 59.648C85.0181 61.808 82.4981 63.8 79.2341 65.624C76.0181 67.448 72.5621 68.36 68.8661 68.36C63.8261 68.36 59.9141 66.992 57.1301 64.256C54.3461 61.52 52.9541 57.776 52.9541 53.024C52.9541 49.712 53.6501 46.64 55.0421 43.808C56.4341 40.928 58.3541 38.648 60.8021 36.968C63.2981 35.288 66.1061 34.448 69.2261 34.448C72.0101 34.448 74.2421 35.288 75.9221 36.968C77.6021 38.6 78.4421 40.832 78.4421 43.664C78.4421 46.976 77.2421 49.832 74.8421 52.232C72.4901 54.584 68.4821 56.456 62.8181 57.848C64.0181 60.056 66.2981 61.16 69.6581 61.16C71.8181 61.16 74.2661 60.416 77.0021 58.928C79.7861 57.392 82.1861 55.4 84.2021 52.952C84.7781 52.28 85.4261 51.944 86.1461 51.944ZM68.0021 41.504C66.2261 41.504 64.7141 42.536 63.4661 44.6C62.2661 46.664 61.6661 49.16 61.6661 52.088V52.232C64.4981 51.56 66.7301 50.552 68.3621 49.208C69.9941 47.864 70.8101 46.304 70.8101 44.528C70.8101 43.616 70.5461 42.896 70.0181 42.368C69.5381 41.792 68.8661 41.504 68.0021 41.504ZM87.4118 68.36C85.5878 68.36 84.2918 67.4 83.5238 65.48C82.8038 63.56 82.4438 60.488 82.4438 56.264C82.4438 50.024 83.3318 44.096 85.1078 38.48C85.5398 37.088 86.2358 36.08 87.1958 35.456C88.2038 34.784 89.5958 34.448 91.3718 34.448C92.3318 34.448 93.0038 34.568 93.3878 34.808C93.7718 35.048 93.9638 35.504 93.9638 36.176C93.9638 36.944 93.6038 38.672 92.8838 41.36C92.4038 43.28 92.0198 44.96 91.7318 46.4C91.4438 47.84 91.2038 49.616 91.0118 51.728C92.5958 47.6 94.3718 44.24 96.3398 41.648C98.3078 39.056 100.228 37.208 102.1 36.104C104.02 35 105.772 34.448 107.356 34.448C110.476 34.448 112.036 36.008 112.036 39.128C112.036 39.752 111.82 41.264 111.388 43.664C111.004 45.584 110.812 46.784 110.812 47.264C110.812 48.944 111.412 49.784 112.612 49.784C113.956 49.784 115.684 48.728 117.796 46.616C118.42 45.992 119.068 45.68 119.74 45.68C120.364 45.68 120.844 45.968 121.18 46.544C121.564 47.072 121.756 47.792 121.756 48.704C121.756 50.48 121.276 51.872 120.316 52.88C118.972 54.272 117.388 55.472 115.564 56.48C113.788 57.44 111.892 57.92 109.876 57.92C107.332 57.92 105.388 57.272 104.044 55.976C102.748 54.68 102.1 52.928 102.1 50.72C102.1 50 102.172 49.28 102.316 48.56C102.412 47.6 102.46 46.952 102.46 46.616C102.46 45.848 102.196 45.464 101.668 45.464C100.948 45.464 99.9878 46.28 98.7878 47.912C97.6358 49.496 96.4838 51.608 95.3318 54.248C94.1798 56.888 93.2438 59.672 92.5238 62.6C91.9958 64.856 91.3718 66.392 90.6518 67.208C89.9798 67.976 88.8998 68.36 87.4118 68.36ZM155.025 51.944C155.649 51.944 156.129 52.232 156.465 52.808C156.849 53.384 157.041 54.176 157.041 55.184C157.041 57.104 156.585 58.592 155.673 59.648C153.465 62.192 151.185 64.28 148.833 65.912C146.529 67.544 143.889 68.36 140.913 68.36C138.465 68.36 136.617 67.664 135.369 66.272C134.121 64.832 133.497 62.768 133.497 60.08C133.497 58.736 133.833 56.336 134.505 52.88C135.129 49.856 135.441 47.768 135.441 46.616C135.441 45.848 135.177 45.464 134.649 45.464C134.025 45.464 133.137 46.28 131.985 47.912C130.833 49.496 129.681 51.608 128.529 54.248C127.377 56.888 126.441 59.672 125.721 62.6C124.809 66.44 122.553 68.36 118.953 68.36C117.513 68.36 116.553 67.856 116.073 66.848C115.641 65.792 115.425 63.92 115.425 61.232C115.425 59.696 115.449 58.472 115.497 57.56L115.569 51.8C115.569 44.408 116.313 36.704 117.801 28.688C119.337 20.672 121.569 13.952 124.497 8.528C127.473 3.056 131.025 0.319996 135.153 0.319996C137.361 0.319996 139.137 1.28 140.481 3.2C141.873 5.072 142.569 7.52 142.569 10.544C142.569 15.392 141.153 20.432 138.321 25.664C135.489 30.848 130.881 36.92 124.497 43.88C124.353 46.376 124.281 48.944 124.281 51.584C125.865 47.504 127.617 44.192 129.537 41.648C131.505 39.056 133.425 37.208 135.297 36.104C137.217 35 138.969 34.448 140.553 34.448C143.673 34.448 145.233 36.008 145.233 39.128C145.233 41 144.705 44.384 143.649 49.28C142.737 53.456 142.281 56.216 142.281 57.56C142.281 59.48 142.977 60.44 144.369 60.44C145.329 60.44 146.457 59.864 147.753 58.712C149.097 57.512 150.873 55.592 153.081 52.952C153.657 52.28 154.305 51.944 155.025 51.944ZM133.641 7.448C132.777 7.448 131.817 8.696 130.761 11.192C129.705 13.64 128.673 16.976 127.665 21.2C126.705 25.376 125.913 29.936 125.289 34.88C128.265 31.376 130.713 27.56 132.633 23.432C134.601 19.304 135.585 15.56 135.585 12.2C135.585 10.664 135.417 9.488 135.081 8.672C134.745 7.856 134.265 7.448 133.641 7.448ZM160.062 68.36C157.086 68.36 154.71 67.28 152.934 65.12C151.158 62.96 150.27 60.128 150.27 56.624C150.27 52.784 151.158 49.16 152.934 45.752C154.71 42.296 157.062 39.536 159.99 37.472C162.966 35.36 166.11 34.304 169.422 34.304C170.478 34.304 171.174 34.52 171.51 34.952C171.894 35.336 172.206 36.056 172.446 37.112C173.454 36.92 174.51 36.824 175.614 36.824C177.966 36.824 179.142 37.664 179.142 39.344C179.142 40.352 178.782 42.752 178.062 46.544C176.958 52.064 176.406 55.904 176.406 58.064C176.406 58.784 176.574 59.36 176.91 59.792C177.294 60.224 177.774 60.44 178.35 60.44C179.262 60.44 180.366 59.864 181.662 58.712C182.958 57.512 184.71 55.592 186.918 52.952C187.494 52.28 188.142 51.944 188.862 51.944C189.486 51.944 189.966 52.232 190.302 52.808C190.686 53.384 190.878 54.176 190.878 55.184C190.878 57.104 190.422 58.592 189.51 59.648C187.542 62.096 185.454 64.16 183.246 65.84C181.038 67.52 178.902 68.36 176.838 68.36C175.254 68.36 173.79 67.832 172.446 66.776C171.15 65.672 170.166 64.184 169.494 62.312C166.998 66.344 163.854 68.36 160.062 68.36ZM162.654 61.088C163.71 61.088 164.718 60.464 165.678 59.216C166.638 57.968 167.334 56.312 167.766 54.248L170.43 41C168.414 41.048 166.542 41.816 164.814 43.304C163.134 44.744 161.79 46.664 160.782 49.064C159.774 51.464 159.27 54.008 159.27 56.696C159.27 58.184 159.558 59.288 160.134 60.008C160.758 60.728 161.598 61.088 162.654 61.088ZM223.33 45.896C223.954 45.896 224.434 46.208 224.77 46.832C225.106 47.456 225.274 48.248 225.274 49.208C225.274 50.408 225.106 51.344 224.77 52.016C224.434 52.64 223.906 53.072 223.186 53.312C220.306 54.32 217.138 54.896 213.682 55.04C212.722 59.024 210.898 62.24 208.21 64.688C205.57 67.136 202.642 68.36 199.426 68.36C194.578 68.36 191.05 66.512 188.842 62.816C186.634 59.12 185.53 53.768 185.53 46.76C185.53 40.568 186.298 33.848 187.834 26.6C189.37 19.304 191.602 13.112 194.53 8.024C197.506 2.888 201.034 0.319996 205.114 0.319996C207.322 0.319996 209.098 1.28 210.442 3.2C211.786 5.072 212.458 7.52 212.458 10.544C212.458 14.48 211.714 18.392 210.226 22.28C208.738 26.168 206.266 30.248 202.81 34.52C206.026 34.76 208.642 36.104 210.658 38.552C212.674 40.952 213.874 43.928 214.258 47.48C216.514 47.336 219.202 46.856 222.322 46.04C222.61 45.944 222.946 45.896 223.33 45.896ZM203.458 7.448C202.498 7.448 201.442 8.888 200.29 11.768C199.186 14.6 198.154 18.464 197.194 23.36C196.234 28.256 195.514 33.608 195.034 39.416C198.202 33.608 200.722 28.496 202.594 24.08C204.514 19.616 205.474 15.656 205.474 12.2C205.474 10.664 205.282 9.488 204.898 8.672C204.562 7.856 204.082 7.448 203.458 7.448ZM199.714 60.728C201.202 60.728 202.522 60.104 203.674 58.856C204.826 57.608 205.594 55.808 205.978 53.456C204.49 52.448 203.338 51.128 202.522 49.496C201.754 47.864 201.37 46.136 201.37 44.312C201.37 43.64 201.466 42.728 201.658 41.576H201.442C199.474 41.576 197.818 42.56 196.474 44.528C195.178 46.448 194.53 49.04 194.53 52.304C194.53 55.04 195.034 57.128 196.042 58.568C197.098 60.008 198.322 60.728 199.714 60.728ZM227.338 68.36C224.602 68.36 222.37 67.28 220.642 65.12C218.962 62.96 218.122 60.128 218.122 56.624C218.122 52.784 219.01 49.16 220.786 45.752C222.562 42.296 224.914 39.536 227.842 37.472C230.818 35.36 233.962 34.304 237.274 34.304C238.33 34.304 239.026 34.52 239.362 34.952C239.746 35.336 240.058 36.056 240.298 37.112C241.21 36.92 242.218 36.824 243.322 36.824C244.474 36.824 245.362 37.112 245.986 37.688C246.61 38.264 246.922 39.08 246.922 40.136C246.922 41.24 246.682 43.16 246.202 45.896C245.674 48.824 245.266 51.632 244.978 54.32C244.69 56.96 244.546 59.936 244.546 63.248C244.546 65.072 244.162 66.392 243.394 67.208C242.674 67.976 241.474 68.36 239.794 68.36C238.162 68.36 236.938 67.976 236.122 67.208C235.354 66.392 234.97 65.096 234.97 63.32L235.042 62.168C233.554 66.296 230.986 68.36 227.338 68.36ZM230.146 61.088C231.49 61.088 232.714 60.152 233.818 58.28C234.922 56.408 235.906 53.072 236.77 48.272L238.138 41C236.17 41.048 234.346 41.816 232.666 43.304C230.986 44.744 229.642 46.664 228.634 49.064C227.626 51.464 227.122 54.008 227.122 56.696C227.122 58.136 227.386 59.24 227.914 60.008C228.49 60.728 229.234 61.088 230.146 61.088ZM253.186 79.376C252.13 79.376 251.29 79.136 250.666 78.656C250.042 78.176 249.73 77.408 249.73 76.352C249.73 75.92 249.802 75.416 249.946 74.84C250.474 72.632 250.858 70.592 251.098 68.72C251.386 66.848 251.53 64.76 251.53 62.456C251.53 60.056 252.082 58.208 253.186 56.912C254.338 55.616 255.802 54.968 257.578 54.968C259.306 54.968 260.602 55.448 261.466 56.408C262.378 57.32 262.834 58.568 262.834 60.152C262.834 61.832 262.33 64.064 261.322 66.848C260.314 69.632 259.09 72.344 257.65 74.984C256.69 76.76 255.922 77.936 255.346 78.512C254.818 79.088 254.098 79.376 253.186 79.376ZM327.885 45.896C328.509 45.896 328.989 46.208 329.325 46.832C329.661 47.456 329.829 48.248 329.829 49.208C329.829 50.408 329.661 51.344 329.325 52.016C328.989 52.64 328.461 53.072 327.741 53.312C324.861 54.32 321.693 54.896 318.237 55.04C317.277 59.024 315.453 62.24 312.765 64.688C310.125 67.136 307.197 68.36 303.981 68.36C299.133 68.36 295.605 66.512 293.397 62.816C291.189 59.12 290.085 53.768 290.085 46.76C290.085 40.568 290.853 33.848 292.389 26.6C293.925 19.304 296.157 13.112 299.085 8.024C302.061 2.888 305.589 0.319996 309.669 0.319996C311.877 0.319996 313.653 1.28 314.997 3.2C316.341 5.072 317.013 7.52 317.013 10.544C317.013 14.48 316.269 18.392 314.781 22.28C313.293 26.168 310.821 30.248 307.365 34.52C310.581 34.76 313.197 36.104 315.213 38.552C317.229 40.952 318.429 43.928 318.813 47.48C321.069 47.336 323.757 46.856 326.877 46.04C327.165 45.944 327.501 45.896 327.885 45.896ZM308.013 7.448C307.053 7.448 305.997 8.888 304.845 11.768C303.741 14.6 302.709 18.464 301.749 23.36C300.789 28.256 300.069 33.608 299.589 39.416C302.757 33.608 305.277 28.496 307.149 24.08C309.069 19.616 310.029 15.656 310.029 12.2C310.029 10.664 309.837 9.488 309.453 8.672C309.117 7.856 308.637 7.448 308.013 7.448ZM304.269 60.728C305.757 60.728 307.077 60.104 308.229 58.856C309.381 57.608 310.149 55.808 310.533 53.456C309.045 52.448 307.893 51.128 307.077 49.496C306.309 47.864 305.925 46.136 305.925 44.312C305.925 43.64 306.021 42.728 306.213 41.576H305.997C304.029 41.576 302.373 42.56 301.029 44.528C299.733 46.448 299.085 49.04 299.085 52.304C299.085 55.04 299.589 57.128 300.597 58.568C301.653 60.008 302.877 60.728 304.269 60.728ZM355.724 51.944C356.348 51.944 356.828 52.232 357.164 52.808C357.548 53.384 357.74 54.176 357.74 55.184C357.74 57.104 357.284 58.592 356.372 59.648C354.596 61.808 352.076 63.8 348.812 65.624C345.596 67.448 342.14 68.36 338.444 68.36C333.404 68.36 329.492 66.992 326.708 64.256C323.924 61.52 322.532 57.776 322.532 53.024C322.532 49.712 323.228 46.64 324.62 43.808C326.012 40.928 327.932 38.648 330.38 36.968C332.876 35.288 335.684 34.448 338.804 34.448C341.588 34.448 343.82 35.288 345.5 36.968C347.18 38.6 348.02 40.832 348.02 43.664C348.02 46.976 346.82 49.832 344.42 52.232C342.068 54.584 338.06 56.456 332.396 57.848C333.596 60.056 335.876 61.16 339.236 61.16C341.396 61.16 343.844 60.416 346.58 58.928C349.364 57.392 351.764 55.4 353.78 52.952C354.356 52.28 355.004 51.944 355.724 51.944ZM337.58 41.504C335.804 41.504 334.292 42.536 333.044 44.6C331.844 46.664 331.244 49.16 331.244 52.088V52.232C334.076 51.56 336.308 50.552 337.94 49.208C339.572 47.864 340.388 46.304 340.388 44.528C340.388 43.616 340.124 42.896 339.596 42.368C339.116 41.792 338.444 41.504 337.58 41.504ZM356.99 68.36C355.166 68.36 353.87 67.4 353.102 65.48C352.382 63.56 352.022 60.488 352.022 56.264C352.022 50.024 352.91 44.096 354.686 38.48C355.118 37.088 355.814 36.08 356.774 35.456C357.782 34.784 359.174 34.448 360.95 34.448C361.91 34.448 362.582 34.568 362.966 34.808C363.35 35.048 363.542 35.504 363.542 36.176C363.542 36.944 363.182 38.672 362.462 41.36C361.982 43.28 361.598 44.96 361.31 46.4C361.022 47.84 360.782 49.616 360.59 51.728C362.174 47.6 363.95 44.24 365.918 41.648C367.886 39.056 369.806 37.208 371.678 36.104C373.598 35 375.35 34.448 376.934 34.448C378.47 34.448 379.622 34.856 380.39 35.672C381.206 36.44 381.614 37.592 381.614 39.128C381.614 40.376 381.35 42.728 380.822 46.184C380.342 49.112 379.958 51.896 379.67 54.536C379.382 57.128 379.238 60.032 379.238 63.248C379.238 65.072 378.854 66.392 378.086 67.208C377.366 67.976 376.166 68.36 374.486 68.36C372.902 68.36 371.75 67.952 371.03 67.136C370.31 66.32 369.95 65.096 369.95 63.464C369.95 61.544 370.286 58.376 370.958 53.96C371.534 50.12 371.822 47.672 371.822 46.616C371.822 45.848 371.558 45.464 371.03 45.464C370.406 45.464 369.518 46.28 368.366 47.912C367.262 49.496 366.11 51.608 364.91 54.248C363.758 56.888 362.822 59.672 362.102 62.6C361.574 64.856 360.95 66.392 360.23 67.208C359.558 67.976 358.478 68.36 356.99 68.36Z" fill="black"/>
</svg>
