<svg width="473" height="186" viewBox="0 0 473 186" fill="none" xmlns="http://www.w3.org/2000/svg">
<path d="M6.568 68.36C4.744 68.36 3.448 67.4 2.68 65.48C1.96 63.56 1.6 60.488 1.6 56.264C1.6 50.024 2.488 44.096 4.264 38.48C4.696 37.088 5.392 36.08 6.352 35.456C7.36 34.784 8.752 34.448 10.528 34.448C11.488 34.448 12.16 34.568 12.544 34.808C12.928 35.048 13.12 35.504 13.12 36.176C13.12 36.944 12.76 38.672 12.04 41.36C11.56 43.28 11.176 44.96 10.888 46.4C10.6 47.792 10.36 49.544 10.168 51.656C11.464 47.912 13 44.744 14.776 42.152C16.6 39.56 18.448 37.64 20.32 36.392C22.24 35.096 24.04 34.448 25.72 34.448C27.4 34.448 28.576 34.832 29.248 35.6C29.968 36.368 30.328 37.544 30.328 39.128C30.328 40.664 29.872 43.448 28.96 47.48C28.576 49.208 28.312 50.504 28.168 51.368C30.568 45.464 33.232 41.168 36.16 38.48C39.088 35.792 41.824 34.448 44.368 34.448C47.488 34.448 49.048 36.008 49.048 39.128C49.048 41 48.52 44.384 47.464 49.28C46.552 53.456 46.096 56.216 46.096 57.56C46.096 59.48 46.792 60.44 48.184 60.44C49.144 60.44 50.272 59.864 51.568 58.712C52.912 57.512 54.688 55.592 56.896 52.952C57.472 52.28 58.12 51.944 58.84 51.944C59.464 51.944 59.944 52.232 60.28 52.808C60.664 53.384 60.856 54.176 60.856 55.184C60.856 57.104 60.4 58.592 59.488 59.648C57.424 62.192 55.192 64.28 52.792 65.912C50.44 67.544 47.752 68.36 44.728 68.36C42.28 68.36 40.432 67.664 39.184 66.272C37.936 64.832 37.312 62.768 37.312 60.08C37.312 58.736 37.648 56.336 38.32 52.88C38.944 49.856 39.256 47.768 39.256 46.616C39.256 45.848 38.992 45.464 38.464 45.464C37.84 45.464 36.952 46.28 35.8 47.912C34.648 49.496 33.496 51.608 32.344 54.248C31.192 56.888 30.256 59.672 29.536 62.6C29.008 64.904 28.384 66.44 27.664 67.208C26.992 67.976 25.888 68.36 24.352 68.36C22.768 68.36 21.568 67.616 20.752 66.128C19.984 64.592 19.6 62.744 19.6 60.584C19.6 58.76 19.84 56.12 20.32 52.664C20.704 49.592 20.896 47.576 20.896 46.616C20.896 45.848 20.632 45.464 20.104 45.464C19.384 45.464 18.472 46.328 17.368 48.056C16.264 49.784 15.184 51.992 14.128 54.68C13.12 57.368 12.304 60.008 11.68 62.6C11.152 64.856 10.528 66.392 9.808 67.208C9.136 67.976 8.056 68.36 6.568 68.36ZM87.1461 51.944C87.7701 51.944 88.2501 52.232 88.5861 52.808C88.9701 53.384 89.1621 54.176 89.1621 55.184C89.1621 57.104 88.7061 58.592 87.7941 59.648C86.0181 61.808 83.4981 63.8 80.2341 65.624C77.0181 67.448 73.5621 68.36 69.8661 68.36C64.8261 68.36 60.9141 66.992 58.1301 64.256C55.3461 61.52 53.9541 57.776 53.9541 53.024C53.9541 49.712 54.6501 46.64 56.0421 43.808C57.4341 40.928 59.3541 38.648 61.8021 36.968C64.2981 35.288 67.1061 34.448 70.2261 34.448C73.0101 34.448 75.2421 35.288 76.9221 36.968C78.6021 38.6 79.4421 40.832 79.4421 43.664C79.4421 46.976 78.2421 49.832 75.8421 52.232C73.4901 54.584 69.4821 56.456 63.8181 57.848C65.0181 60.056 67.2981 61.16 70.6581 61.16C72.8181 61.16 75.2661 60.416 78.0021 58.928C80.7861 57.392 83.1861 55.4 85.2021 52.952C85.7781 52.28 86.4261 51.944 87.1461 51.944ZM69.0021 41.504C67.2261 41.504 65.7141 42.536 64.4661 44.6C63.2661 46.664 62.6661 49.16 62.6661 52.088V52.232C65.4981 51.56 67.7301 50.552 69.3621 49.208C70.9941 47.864 71.8101 46.304 71.8101 44.528C71.8101 43.616 71.5461 42.896 71.0181 42.368C70.5381 41.792 69.8661 41.504 69.0021 41.504ZM88.4118 68.36C86.5878 68.36 85.2918 67.4 84.5238 65.48C83.8038 63.56 83.4438 60.488 83.4438 56.264C83.4438 50.024 84.3318 44.096 86.1078 38.48C86.5398 37.088 87.2358 36.08 88.1958 35.456C89.2038 34.784 90.5958 34.448 92.3718 34.448C93.3318 34.448 94.0038 34.568 94.3878 34.808C94.7718 35.048 94.9638 35.504 94.9638 36.176C94.9638 36.944 94.6038 38.672 93.8838 41.36C93.4038 43.28 93.0198 44.96 92.7318 46.4C92.4438 47.84 92.2038 49.616 92.0118 51.728C93.5958 47.6 95.3718 44.24 97.3398 41.648C99.3078 39.056 101.228 37.208 103.1 36.104C105.02 35 106.772 34.448 108.356 34.448C111.476 34.448 113.036 36.008 113.036 39.128C113.036 39.752 112.82 41.264 112.388 43.664C112.004 45.584 111.812 46.784 111.812 47.264C111.812 48.944 112.412 49.784 113.612 49.784C114.956 49.784 116.684 48.728 118.796 46.616C119.42 45.992 120.068 45.68 120.74 45.68C121.364 45.68 121.844 45.968 122.18 46.544C122.564 47.072 122.756 47.792 122.756 48.704C122.756 50.48 122.276 51.872 121.316 52.88C119.972 54.272 118.388 55.472 116.564 56.48C114.788 57.44 112.892 57.92 110.876 57.92C108.332 57.92 106.388 57.272 105.044 55.976C103.748 54.68 103.1 52.928 103.1 50.72C103.1 50 103.172 49.28 103.316 48.56C103.412 47.6 103.46 46.952 103.46 46.616C103.46 45.848 103.196 45.464 102.668 45.464C101.948 45.464 100.988 46.28 99.7878 47.912C98.6358 49.496 97.4838 51.608 96.3318 54.248C95.1798 56.888 94.2438 59.672 93.5238 62.6C92.9958 64.856 92.3718 66.392 91.6518 67.208C90.9798 67.976 89.8998 68.36 88.4118 68.36ZM156.025 51.944C156.649 51.944 157.129 52.232 157.465 52.808C157.849 53.384 158.041 54.176 158.041 55.184C158.041 57.104 157.585 58.592 156.673 59.648C154.465 62.192 152.185 64.28 149.833 65.912C147.529 67.544 144.889 68.36 141.913 68.36C139.465 68.36 137.617 67.664 136.369 66.272C135.121 64.832 134.497 62.768 134.497 60.08C134.497 58.736 134.833 56.336 135.505 52.88C136.129 49.856 136.441 47.768 136.441 46.616C136.441 45.848 136.177 45.464 135.649 45.464C135.025 45.464 134.137 46.28 132.985 47.912C131.833 49.496 130.681 51.608 129.529 54.248C128.377 56.888 127.441 59.672 126.721 62.6C125.809 66.44 123.553 68.36 119.953 68.36C118.513 68.36 117.553 67.856 117.073 66.848C116.641 65.792 116.425 63.92 116.425 61.232C116.425 59.696 116.449 58.472 116.497 57.56L116.569 51.8C116.569 44.408 117.313 36.704 118.801 28.688C120.337 20.672 122.569 13.952 125.497 8.528C128.473 3.056 132.025 0.319996 136.153 0.319996C138.361 0.319996 140.137 1.28 141.481 3.2C142.873 5.072 143.569 7.52 143.569 10.544C143.569 15.392 142.153 20.432 139.321 25.664C136.489 30.848 131.881 36.92 125.497 43.88C125.353 46.376 125.281 48.944 125.281 51.584C126.865 47.504 128.617 44.192 130.537 41.648C132.505 39.056 134.425 37.208 136.297 36.104C138.217 35 139.969 34.448 141.553 34.448C144.673 34.448 146.233 36.008 146.233 39.128C146.233 41 145.705 44.384 144.649 49.28C143.737 53.456 143.281 56.216 143.281 57.56C143.281 59.48 143.977 60.44 145.369 60.44C146.329 60.44 147.457 59.864 148.753 58.712C150.097 57.512 151.873 55.592 154.081 52.952C154.657 52.28 155.305 51.944 156.025 51.944ZM134.641 7.448C133.777 7.448 132.817 8.696 131.761 11.192C130.705 13.64 129.673 16.976 128.665 21.2C127.705 25.376 126.913 29.936 126.289 34.88C129.265 31.376 131.713 27.56 133.633 23.432C135.601 19.304 136.585 15.56 136.585 12.2C136.585 10.664 136.417 9.488 136.081 8.672C135.745 7.856 135.265 7.448 134.641 7.448ZM161.062 68.36C158.086 68.36 155.71 67.28 153.934 65.12C152.158 62.96 151.27 60.128 151.27 56.624C151.27 52.784 152.158 49.16 153.934 45.752C155.71 42.296 158.062 39.536 160.99 37.472C163.966 35.36 167.11 34.304 170.422 34.304C171.478 34.304 172.174 34.52 172.51 34.952C172.894 35.336 173.206 36.056 173.446 37.112C174.454 36.92 175.51 36.824 176.614 36.824C178.966 36.824 180.142 37.664 180.142 39.344C180.142 40.352 179.782 42.752 179.062 46.544C177.958 52.064 177.406 55.904 177.406 58.064C177.406 58.784 177.574 59.36 177.91 59.792C178.294 60.224 178.774 60.44 179.35 60.44C180.262 60.44 181.366 59.864 182.662 58.712C183.958 57.512 185.71 55.592 187.918 52.952C188.494 52.28 189.142 51.944 189.862 51.944C190.486 51.944 190.966 52.232 191.302 52.808C191.686 53.384 191.878 54.176 191.878 55.184C191.878 57.104 191.422 58.592 190.51 59.648C188.542 62.096 186.454 64.16 184.246 65.84C182.038 67.52 179.902 68.36 177.838 68.36C176.254 68.36 174.79 67.832 173.446 66.776C172.15 65.672 171.166 64.184 170.494 62.312C167.998 66.344 164.854 68.36 161.062 68.36ZM163.654 61.088C164.71 61.088 165.718 60.464 166.678 59.216C167.638 57.968 168.334 56.312 168.766 54.248L171.43 41C169.414 41.048 167.542 41.816 165.814 43.304C164.134 44.744 162.79 46.664 161.782 49.064C160.774 51.464 160.27 54.008 160.27 56.696C160.27 58.184 160.558 59.288 161.134 60.008C161.758 60.728 162.598 61.088 163.654 61.088ZM224.33 45.896C224.954 45.896 225.434 46.208 225.77 46.832C226.106 47.456 226.274 48.248 226.274 49.208C226.274 50.408 226.106 51.344 225.77 52.016C225.434 52.64 224.906 53.072 224.186 53.312C221.306 54.32 218.138 54.896 214.682 55.04C213.722 59.024 211.898 62.24 209.21 64.688C206.57 67.136 203.642 68.36 200.426 68.36C195.578 68.36 192.05 66.512 189.842 62.816C187.634 59.12 186.53 53.768 186.53 46.76C186.53 40.568 187.298 33.848 188.834 26.6C190.37 19.304 192.602 13.112 195.53 8.024C198.506 2.888 202.034 0.319996 206.114 0.319996C208.322 0.319996 210.098 1.28 211.442 3.2C212.786 5.072 213.458 7.52 213.458 10.544C213.458 14.48 212.714 18.392 211.226 22.28C209.738 26.168 207.266 30.248 203.81 34.52C207.026 34.76 209.642 36.104 211.658 38.552C213.674 40.952 214.874 43.928 215.258 47.48C217.514 47.336 220.202 46.856 223.322 46.04C223.61 45.944 223.946 45.896 224.33 45.896ZM204.458 7.448C203.498 7.448 202.442 8.888 201.29 11.768C200.186 14.6 199.154 18.464 198.194 23.36C197.234 28.256 196.514 33.608 196.034 39.416C199.202 33.608 201.722 28.496 203.594 24.08C205.514 19.616 206.474 15.656 206.474 12.2C206.474 10.664 206.282 9.488 205.898 8.672C205.562 7.856 205.082 7.448 204.458 7.448ZM200.714 60.728C202.202 60.728 203.522 60.104 204.674 58.856C205.826 57.608 206.594 55.808 206.978 53.456C205.49 52.448 204.338 51.128 203.522 49.496C202.754 47.864 202.37 46.136 202.37 44.312C202.37 43.64 202.466 42.728 202.658 41.576H202.442C200.474 41.576 198.818 42.56 197.474 44.528C196.178 46.448 195.53 49.04 195.53 52.304C195.53 55.04 196.034 57.128 197.042 58.568C198.098 60.008 199.322 60.728 200.714 60.728ZM228.338 68.36C225.602 68.36 223.37 67.28 221.642 65.12C219.962 62.96 219.122 60.128 219.122 56.624C219.122 52.784 220.01 49.16 221.786 45.752C223.562 42.296 225.914 39.536 228.842 37.472C231.818 35.36 234.962 34.304 238.274 34.304C239.33 34.304 240.026 34.52 240.362 34.952C240.746 35.336 241.058 36.056 241.298 37.112C242.21 36.92 243.218 36.824 244.322 36.824C245.474 36.824 246.362 37.112 246.986 37.688C247.61 38.264 247.922 39.08 247.922 40.136C247.922 41.24 247.682 43.16 247.202 45.896C246.674 48.824 246.266 51.632 245.978 54.32C245.69 56.96 245.546 59.936 245.546 63.248C245.546 65.072 245.162 66.392 244.394 67.208C243.674 67.976 242.474 68.36 240.794 68.36C239.162 68.36 237.938 67.976 237.122 67.208C236.354 66.392 235.97 65.096 235.97 63.32L236.042 62.168C234.554 66.296 231.986 68.36 228.338 68.36ZM231.146 61.088C232.49 61.088 233.714 60.152 234.818 58.28C235.922 56.408 236.906 53.072 237.77 48.272L239.138 41C237.17 41.048 235.346 41.816 233.666 43.304C231.986 44.744 230.642 46.664 229.634 49.064C228.626 51.464 228.122 54.008 228.122 56.696C228.122 58.136 228.386 59.24 228.914 60.008C229.49 60.728 230.234 61.088 231.146 61.088ZM254.186 79.376C253.13 79.376 252.29 79.136 251.666 78.656C251.042 78.176 250.73 77.408 250.73 76.352C250.73 75.92 250.802 75.416 250.946 74.84C251.474 72.632 251.858 70.592 252.098 68.72C252.386 66.848 252.53 64.76 252.53 62.456C252.53 60.056 253.082 58.208 254.186 56.912C255.338 55.616 256.802 54.968 258.578 54.968C260.306 54.968 261.602 55.448 262.466 56.408C263.378 57.32 263.834 58.568 263.834 60.152C263.834 61.832 263.33 64.064 262.322 66.848C261.314 69.632 260.09 72.344 258.65 74.984C257.69 76.76 256.922 77.936 256.346 78.512C255.818 79.088 255.098 79.376 254.186 79.376ZM328.885 45.896C329.509 45.896 329.989 46.208 330.325 46.832C330.661 47.456 330.829 48.248 330.829 49.208C330.829 50.408 330.661 51.344 330.325 52.016C329.989 52.64 329.461 53.072 328.741 53.312C325.861 54.32 322.693 54.896 319.237 55.04C318.277 59.024 316.453 62.24 313.765 64.688C311.125 67.136 308.197 68.36 304.981 68.36C300.133 68.36 296.605 66.512 294.397 62.816C292.189 59.12 291.085 53.768 291.085 46.76C291.085 40.568 291.853 33.848 293.389 26.6C294.925 19.304 297.157 13.112 300.085 8.024C303.061 2.888 306.589 0.319996 310.669 0.319996C312.877 0.319996 314.653 1.28 315.997 3.2C317.341 5.072 318.013 7.52 318.013 10.544C318.013 14.48 317.269 18.392 315.781 22.28C314.293 26.168 311.821 30.248 308.365 34.52C311.581 34.76 314.197 36.104 316.213 38.552C318.229 40.952 319.429 43.928 319.813 47.48C322.069 47.336 324.757 46.856 327.877 46.04C328.165 45.944 328.501 45.896 328.885 45.896ZM309.013 7.448C308.053 7.448 306.997 8.888 305.845 11.768C304.741 14.6 303.709 18.464 302.749 23.36C301.789 28.256 301.069 33.608 300.589 39.416C303.757 33.608 306.277 28.496 308.149 24.08C310.069 19.616 311.029 15.656 311.029 12.2C311.029 10.664 310.837 9.488 310.453 8.672C310.117 7.856 309.637 7.448 309.013 7.448ZM305.269 60.728C306.757 60.728 308.077 60.104 309.229 58.856C310.381 57.608 311.149 55.808 311.533 53.456C310.045 52.448 308.893 51.128 308.077 49.496C307.309 47.864 306.925 46.136 306.925 44.312C306.925 43.64 307.021 42.728 307.213 41.576H306.997C305.029 41.576 303.373 42.56 302.029 44.528C300.733 46.448 300.085 49.04 300.085 52.304C300.085 55.04 300.589 57.128 301.597 58.568C302.653 60.008 303.877 60.728 305.269 60.728ZM356.724 51.944C357.348 51.944 357.828 52.232 358.164 52.808C358.548 53.384 358.74 54.176 358.74 55.184C358.74 57.104 358.284 58.592 357.372 59.648C355.596 61.808 353.076 63.8 349.812 65.624C346.596 67.448 343.14 68.36 339.444 68.36C334.404 68.36 330.492 66.992 327.708 64.256C324.924 61.52 323.532 57.776 323.532 53.024C323.532 49.712 324.228 46.64 325.62 43.808C327.012 40.928 328.932 38.648 331.38 36.968C333.876 35.288 336.684 34.448 339.804 34.448C342.588 34.448 344.82 35.288 346.5 36.968C348.18 38.6 349.02 40.832 349.02 43.664C349.02 46.976 347.82 49.832 345.42 52.232C343.068 54.584 339.06 56.456 333.396 57.848C334.596 60.056 336.876 61.16 340.236 61.16C342.396 61.16 344.844 60.416 347.58 58.928C350.364 57.392 352.764 55.4 354.78 52.952C355.356 52.28 356.004 51.944 356.724 51.944ZM338.58 41.504C336.804 41.504 335.292 42.536 334.044 44.6C332.844 46.664 332.244 49.16 332.244 52.088V52.232C335.076 51.56 337.308 50.552 338.94 49.208C340.572 47.864 341.388 46.304 341.388 44.528C341.388 43.616 341.124 42.896 340.596 42.368C340.116 41.792 339.444 41.504 338.58 41.504ZM357.99 68.36C356.166 68.36 354.87 67.4 354.102 65.48C353.382 63.56 353.022 60.488 353.022 56.264C353.022 50.024 353.91 44.096 355.686 38.48C356.118 37.088 356.814 36.08 357.774 35.456C358.782 34.784 360.174 34.448 361.95 34.448C362.91 34.448 363.582 34.568 363.966 34.808C364.35 35.048 364.542 35.504 364.542 36.176C364.542 36.944 364.182 38.672 363.462 41.36C362.982 43.28 362.598 44.96 362.31 46.4C362.022 47.84 361.782 49.616 361.59 51.728C363.174 47.6 364.95 44.24 366.918 41.648C368.886 39.056 370.806 37.208 372.678 36.104C374.598 35 376.35 34.448 377.934 34.448C379.47 34.448 380.622 34.856 381.39 35.672C382.206 36.44 382.614 37.592 382.614 39.128C382.614 40.376 382.35 42.728 381.822 46.184C381.342 49.112 380.958 51.896 380.67 54.536C380.382 57.128 380.238 60.032 380.238 63.248C380.238 65.072 379.854 66.392 379.086 67.208C378.366 67.976 377.166 68.36 375.486 68.36C373.902 68.36 372.75 67.952 372.03 67.136C371.31 66.32 370.95 65.096 370.95 63.464C370.95 61.544 371.286 58.376 371.958 53.96C372.534 50.12 372.822 47.672 372.822 46.616C372.822 45.848 372.558 45.464 372.03 45.464C371.406 45.464 370.518 46.28 369.366 47.912C368.262 49.496 367.11 51.608 365.91 54.248C364.758 56.888 363.822 59.672 363.102 62.6C362.574 64.856 361.95 66.392 361.23 67.208C360.558 67.976 359.478 68.36 357.99 68.36ZM33.568 151.944C34.192 151.944 34.672 152.232 35.008 152.808C35.392 153.384 35.584 154.176 35.584 155.184C35.584 157.104 35.128 158.592 34.216 159.648C32.44 161.808 29.92 163.8 26.656 165.624C23.44 167.448 19.984 168.36 16.288 168.36C11.248 168.36 7.336 166.992 4.552 164.256C1.768 161.52 0.376 157.776 0.376 153.024C0.376 149.712 1.072 146.64 2.464 143.808C3.856 140.928 5.776 138.648 8.224 136.968C10.72 135.288 13.528 134.448 16.648 134.448C19.432 134.448 21.664 135.288 23.344 136.968C25.024 138.6 25.864 140.832 25.864 143.664C25.864 146.976 24.664 149.832 22.264 152.232C19.912 154.584 15.904 156.456 10.24 157.848C11.44 160.056 13.72 161.16 17.08 161.16C19.24 161.16 21.688 160.416 24.424 158.928C27.208 157.392 29.608 155.4 31.624 152.952C32.2 152.28 32.848 151.944 33.568 151.944ZM15.424 141.504C13.648 141.504 12.136 142.536 10.888 144.6C9.688 146.664 9.088 149.16 9.088 152.088V152.232C11.92 151.56 14.152 150.552 15.784 149.208C17.416 147.864 18.232 146.304 18.232 144.528C18.232 143.616 17.968 142.896 17.44 142.368C16.96 141.792 16.288 141.504 15.424 141.504ZM34.8336 168.36C33.0096 168.36 31.7136 167.4 30.9456 165.48C30.2256 163.56 29.8656 160.488 29.8656 156.264C29.8656 150.024 30.7536 144.096 32.5296 138.48C32.9616 137.088 33.6576 136.08 34.6176 135.456C35.6256 134.784 37.0176 134.448 38.7936 134.448C39.7536 134.448 40.4256 134.568 40.8096 134.808C41.1936 135.048 41.3856 135.504 41.3856 136.176C41.3856 136.944 41.0256 138.672 40.3056 141.36C39.8256 143.28 39.4416 144.96 39.1536 146.4C38.8656 147.792 38.6256 149.544 38.4336 151.656C39.7296 147.912 41.2656 144.744 43.0416 142.152C44.8656 139.56 46.7136 137.64 48.5856 136.392C50.5056 135.096 52.3056 134.448 53.9856 134.448C55.6656 134.448 56.8416 134.832 57.5136 135.6C58.2336 136.368 58.5936 137.544 58.5936 139.128C58.5936 140.664 58.1376 143.448 57.2256 147.48C56.8416 149.208 56.5776 150.504 56.4336 151.368C58.8336 145.464 61.4976 141.168 64.4256 138.48C67.3536 135.792 70.0896 134.448 72.6336 134.448C75.7536 134.448 77.3136 136.008 77.3136 139.128C77.3136 141 76.7856 144.384 75.7296 149.28C74.8176 153.456 74.3616 156.216 74.3616 157.56C74.3616 159.48 75.0576 160.44 76.4496 160.44C77.4096 160.44 78.5376 159.864 79.8336 158.712C81.1776 157.512 82.9536 155.592 85.1616 152.952C85.7376 152.28 86.3856 151.944 87.1056 151.944C87.7296 151.944 88.2096 152.232 88.5456 152.808C88.9296 153.384 89.1216 154.176 89.1216 155.184C89.1216 157.104 88.6656 158.592 87.7536 159.648C85.6896 162.192 83.4576 164.28 81.0576 165.912C78.7056 167.544 76.0176 168.36 72.9936 168.36C70.5456 168.36 68.6976 167.664 67.4496 166.272C66.2016 164.832 65.5776 162.768 65.5776 160.08C65.5776 158.736 65.9136 156.336 66.5856 152.88C67.2096 149.856 67.5216 147.768 67.5216 146.616C67.5216 145.848 67.2576 145.464 66.7296 145.464C66.1056 145.464 65.2176 146.28 64.0656 147.912C62.9136 149.496 61.7616 151.608 60.6096 154.248C59.4576 156.888 58.5216 159.672 57.8016 162.6C57.2736 164.904 56.6496 166.44 55.9296 167.208C55.2576 167.976 54.1536 168.36 52.6176 168.36C51.0336 168.36 49.8336 167.616 49.0176 166.128C48.2496 164.592 47.8656 162.744 47.8656 160.584C47.8656 158.76 48.1056 156.12 48.5856 152.664C48.9696 149.592 49.1616 147.576 49.1616 146.616C49.1616 145.848 48.8976 145.464 48.3696 145.464C47.6496 145.464 46.7376 146.328 45.6336 148.056C44.5296 149.784 43.4496 151.992 42.3936 154.68C41.3856 157.368 40.5696 160.008 39.9456 162.6C39.4176 164.856 38.7936 166.392 38.0736 167.208C37.4016 167.976 36.3216 168.36 34.8336 168.36ZM88.4118 168.36C86.5878 168.36 85.2918 167.4 84.5238 165.48C83.8038 163.56 83.4438 160.488 83.4438 156.264C83.4438 150.024 84.3318 144.096 86.1078 138.48C86.5398 137.088 87.2358 136.08 88.1958 135.456C89.2038 134.784 90.5958 134.448 92.3718 134.448C93.3318 134.448 94.0038 134.568 94.3878 134.808C94.7718 135.048 94.9638 135.504 94.9638 136.176C94.9638 136.944 94.6038 138.672 93.8838 141.36C93.4038 143.28 93.0198 144.96 92.7318 146.4C92.4438 147.84 92.2038 149.616 92.0118 151.728C93.5958 147.6 95.3718 144.24 97.3398 141.648C99.3078 139.056 101.228 137.208 103.1 136.104C105.02 135 106.772 134.448 108.356 134.448C111.476 134.448 113.036 136.008 113.036 139.128C113.036 139.752 112.82 141.264 112.388 143.664C112.004 145.584 111.812 146.784 111.812 147.264C111.812 148.944 112.412 149.784 113.612 149.784C114.956 149.784 116.684 148.728 118.796 146.616C119.42 145.992 120.068 145.68 120.74 145.68C121.364 145.68 121.844 145.968 122.18 146.544C122.564 147.072 122.756 147.792 122.756 148.704C122.756 150.48 122.276 151.872 121.316 152.88C119.972 154.272 118.388 155.472 116.564 156.48C114.788 157.44 112.892 157.92 110.876 157.92C108.332 157.92 106.388 157.272 105.044 155.976C103.748 154.68 103.1 152.928 103.1 150.72C103.1 150 103.172 149.28 103.316 148.56C103.412 147.6 103.46 146.952 103.46 146.616C103.46 145.848 103.196 145.464 102.668 145.464C101.948 145.464 100.988 146.28 99.7878 147.912C98.6358 149.496 97.4838 151.608 96.3318 154.248C95.1798 156.888 94.2438 159.672 93.5238 162.6C92.9958 164.856 92.3718 166.392 91.6518 167.208C90.9798 167.976 89.8998 168.36 88.4118 168.36ZM141.841 154.104C142.465 154.104 142.945 154.392 143.281 154.968C143.665 155.544 143.857 156.336 143.857 157.344C143.857 159.072 143.449 160.56 142.633 161.808C141.289 163.872 139.513 165.48 137.305 166.632C135.145 167.784 132.553 168.36 129.529 168.36C124.921 168.36 121.345 166.992 118.801 164.256C116.257 161.472 114.985 157.728 114.985 153.024C114.985 149.712 115.681 146.64 117.073 143.808C118.465 140.928 120.385 138.648 122.833 136.968C125.329 135.288 128.137 134.448 131.257 134.448C134.041 134.448 136.273 135.288 137.953 136.968C139.633 138.6 140.473 140.832 140.473 143.664C140.473 146.976 139.273 149.832 136.873 152.232C134.521 154.584 130.489 156.456 124.777 157.848C125.929 160.056 127.873 161.16 130.609 161.16C132.577 161.16 134.185 160.704 135.433 159.792C136.729 158.88 138.217 157.344 139.897 155.184C140.473 154.464 141.121 154.104 141.841 154.104ZM130.033 141.504C128.257 141.504 126.745 142.536 125.497 144.6C124.297 146.664 123.697 149.16 123.697 152.088V152.232C126.529 151.56 128.761 150.552 130.393 149.208C132.025 147.864 132.841 146.304 132.841 144.528C132.841 143.616 132.577 142.896 132.049 142.368C131.569 141.792 130.897 141.504 130.033 141.504ZM206.338 151.944C206.962 151.944 207.442 152.232 207.778 152.808C208.162 153.384 208.354 154.176 208.354 155.184C208.354 157.104 207.898 158.592 206.986 159.648C204.826 162.288 202.642 164.4 200.434 165.984C198.226 167.568 195.61 168.36 192.586 168.36C188.89 168.36 185.914 167.304 183.658 165.192C181.402 163.08 180.274 160.272 180.274 156.768C180.274 154.896 181.234 153.552 183.154 152.736C185.266 151.824 186.778 150.864 187.69 149.856C188.602 148.8 189.058 147.528 189.058 146.04C189.058 145.176 188.866 144.528 188.482 144.096C188.146 143.664 187.714 143.448 187.186 143.448C185.89 143.448 184.45 144.384 182.866 146.256C181.33 148.128 179.89 150.552 178.546 153.528C177.202 156.456 176.146 159.48 175.378 162.6C174.85 164.856 174.226 166.392 173.506 167.208C172.834 167.976 171.754 168.36 170.266 168.36C168.778 168.36 167.674 167.832 166.954 166.776C166.282 165.672 165.826 163.992 165.586 161.736C165.346 159.48 165.226 156.168 165.226 151.8C165.226 144.408 165.97 136.704 167.458 128.688C168.994 120.672 171.226 113.952 174.154 108.528C177.13 103.056 180.682 100.32 184.81 100.32C187.018 100.32 188.794 101.28 190.138 103.2C191.53 105.072 192.226 107.52 192.226 110.544C192.226 115.392 190.81 120.432 187.978 125.664C185.146 130.848 180.538 136.92 174.154 143.88C174.01 146.376 173.938 148.944 173.938 151.584C176.242 145.584 178.882 141.24 181.858 138.552C184.834 135.816 187.618 134.448 190.21 134.448C192.61 134.448 194.53 135.264 195.97 136.896C197.458 138.528 198.202 140.544 198.202 142.944C198.202 145.584 197.53 148.008 196.186 150.216C194.842 152.424 192.538 154.392 189.274 156.12C189.466 157.416 190.042 158.472 191.002 159.288C192.01 160.056 193.21 160.44 194.602 160.44C196.09 160.44 197.53 159.864 198.922 158.712C200.314 157.56 202.138 155.64 204.394 152.952C204.97 152.28 205.618 151.944 206.338 151.944ZM183.298 107.448C182.434 107.448 181.474 108.696 180.418 111.192C179.362 113.64 178.33 116.976 177.322 121.2C176.362 125.376 175.57 129.936 174.946 134.88C177.922 131.376 180.37 127.56 182.29 123.432C184.258 119.304 185.242 115.56 185.242 112.2C185.242 110.664 185.074 109.488 184.738 108.672C184.402 107.856 183.922 107.448 183.298 107.448ZM211.406 168.36C208.43 168.36 206.054 167.28 204.278 165.12C202.502 162.96 201.614 160.128 201.614 156.624C201.614 152.784 202.502 149.16 204.278 145.752C206.054 142.296 208.406 139.536 211.334 137.472C214.31 135.36 217.454 134.304 220.766 134.304C221.822 134.304 222.518 134.52 222.854 134.952C223.238 135.336 223.55 136.056 223.79 137.112C224.798 136.92 225.854 136.824 226.958 136.824C229.31 136.824 230.486 137.664 230.486 139.344C230.486 140.352 230.126 142.752 229.406 146.544C228.302 152.064 227.75 155.904 227.75 158.064C227.75 158.784 227.918 159.36 228.254 159.792C228.638 160.224 229.118 160.44 229.694 160.44C230.606 160.44 231.71 159.864 233.006 158.712C234.302 157.512 236.054 155.592 238.262 152.952C238.838 152.28 239.486 151.944 240.206 151.944C240.83 151.944 241.31 152.232 241.646 152.808C242.03 153.384 242.222 154.176 242.222 155.184C242.222 157.104 241.766 158.592 240.854 159.648C238.886 162.096 236.798 164.16 234.59 165.84C232.382 167.52 230.246 168.36 228.182 168.36C226.598 168.36 225.134 167.832 223.79 166.776C222.494 165.672 221.51 164.184 220.838 162.312C218.342 166.344 215.198 168.36 211.406 168.36ZM213.998 161.088C215.054 161.088 216.062 160.464 217.022 159.216C217.982 157.968 218.678 156.312 219.11 154.248L221.774 141C219.758 141.048 217.886 141.816 216.158 143.304C214.478 144.744 213.134 146.664 212.126 149.064C211.118 151.464 210.614 154.008 210.614 156.696C210.614 158.184 210.902 159.288 211.478 160.008C212.102 160.728 212.942 161.088 213.998 161.088ZM245.226 168.36C242.25 168.36 239.874 167.28 238.098 165.12C236.322 162.96 235.434 160.128 235.434 156.624C235.434 152.784 236.322 149.16 238.098 145.752C239.874 142.296 242.226 139.536 245.154 137.472C248.13 135.36 251.274 134.304 254.586 134.304C255.642 134.304 256.338 134.52 256.674 134.952C257.058 135.336 257.37 136.056 257.61 137.112C258.618 136.92 259.674 136.824 260.778 136.824C263.13 136.824 264.306 137.664 264.306 139.344C264.306 140.352 263.946 142.752 263.226 146.544C262.122 152.064 261.57 155.904 261.57 158.064C261.57 158.784 261.738 159.36 262.074 159.792C262.458 160.224 262.938 160.44 263.514 160.44C264.426 160.44 265.53 159.864 266.826 158.712C268.122 157.512 269.874 155.592 272.082 152.952C272.658 152.28 273.306 151.944 274.026 151.944C274.65 151.944 275.13 152.232 275.466 152.808C275.85 153.384 276.042 154.176 276.042 155.184C276.042 157.104 275.586 158.592 274.674 159.648C272.706 162.096 270.618 164.16 268.41 165.84C266.202 167.52 264.066 168.36 262.002 168.36C260.418 168.36 258.954 167.832 257.61 166.776C256.314 165.672 255.33 164.184 254.658 162.312C252.162 166.344 249.018 168.36 245.226 168.36ZM247.818 161.088C248.874 161.088 249.882 160.464 250.842 159.216C251.802 157.968 252.498 156.312 252.93 154.248L255.594 141C253.578 141.048 251.706 141.816 249.978 143.304C248.298 144.744 246.954 146.664 245.946 149.064C244.938 151.464 244.434 154.008 244.434 156.696C244.434 158.184 244.722 159.288 245.298 160.008C245.922 160.728 246.762 161.088 247.818 161.088ZM275.302 168.36C273.478 168.36 272.182 167.4 271.414 165.48C270.694 163.56 270.334 160.488 270.334 156.264C270.334 150.024 271.222 144.096 272.998 138.48C273.43 137.088 274.126 136.08 275.086 135.456C276.094 134.784 277.486 134.448 279.262 134.448C280.222 134.448 280.894 134.568 281.278 134.808C281.662 135.048 281.854 135.504 281.854 136.176C281.854 136.944 281.494 138.672 280.774 141.36C280.294 143.28 279.91 144.96 279.622 146.4C279.334 147.84 279.094 149.616 278.902 151.728C280.486 147.6 282.262 144.24 284.23 141.648C286.198 139.056 288.118 137.208 289.99 136.104C291.91 135 293.662 134.448 295.246 134.448C296.782 134.448 297.934 134.856 298.702 135.672C299.518 136.44 299.926 137.592 299.926 139.128C299.926 140.376 299.662 142.728 299.134 146.184C298.654 149.112 298.27 151.896 297.982 154.536C297.694 157.128 297.55 160.032 297.55 163.248C297.55 165.072 297.166 166.392 296.398 167.208C295.678 167.976 294.478 168.36 292.798 168.36C291.214 168.36 290.062 167.952 289.342 167.136C288.622 166.32 288.262 165.096 288.262 163.464C288.262 161.544 288.598 158.376 289.27 153.96C289.846 150.12 290.134 147.672 290.134 146.616C290.134 145.848 289.87 145.464 289.342 145.464C288.718 145.464 287.83 146.28 286.678 147.912C285.574 149.496 284.422 151.608 283.222 154.248C282.07 156.888 281.134 159.672 280.414 162.6C279.886 164.856 279.262 166.392 278.542 167.208C277.87 167.976 276.79 168.36 275.302 168.36ZM358.68 151.944C359.304 151.944 359.784 152.232 360.12 152.808C360.504 153.384 360.696 154.176 360.696 155.184C360.696 157.008 360.24 158.496 359.328 159.648C356.928 162.624 354.624 164.664 352.416 165.768C350.256 166.824 347.568 167.4 344.352 167.496L343.272 168.288C344.76 169.776 345.504 171.744 345.504 174.192C345.504 176.448 344.952 178.464 343.848 180.24C342.792 182.064 341.232 183.48 339.168 184.488C337.152 185.496 334.776 186 332.04 186C330.216 186 328.728 185.88 327.576 185.64C325.704 185.304 324.768 184.248 324.768 182.472C324.768 180.312 325.728 179.232 327.648 179.232C328.032 179.232 328.344 179.256 328.584 179.304C329.88 179.496 331.152 179.592 332.4 179.592C334.32 179.592 335.808 179.184 336.864 178.368C337.968 177.6 338.52 176.4 338.52 174.768C338.52 173.568 337.992 172.608 336.936 171.888C335.928 171.216 334.536 170.88 332.76 170.88C331.512 170.88 330.552 170.712 329.88 170.376C329.208 170.04 328.872 169.464 328.872 168.648C328.872 168.36 328.896 168.144 328.944 168C329.184 167.04 329.568 166.344 330.096 165.912C329.904 165.48 329.808 164.952 329.808 164.328C329.808 163.08 330.264 162 331.176 161.088C332.088 160.176 333.432 159.72 335.208 159.72C335.832 159.72 336.552 159.792 337.368 159.936C338.232 160.032 338.88 160.104 339.312 160.152C339.264 158.904 338.976 157.728 338.448 156.624C337.968 155.52 337.344 154.464 336.576 153.456C335.808 152.4 335.088 151.488 334.416 150.72C332.928 153.552 331.44 155.904 329.952 157.776C328.512 159.648 326.928 161.424 325.2 163.104C324.336 163.968 323.424 164.4 322.464 164.4C321.696 164.4 321.072 164.136 320.592 163.608C320.112 163.032 319.872 162.336 319.872 161.52C319.872 160.56 320.208 159.672 320.88 158.856L321.816 157.704C324.456 154.44 326.448 151.752 327.792 149.64C328.608 148.248 329.568 146.4 330.672 144.096C331.776 141.744 332.856 139.32 333.912 136.824C334.824 134.712 336.72 133.656 339.6 133.656C340.944 133.656 341.88 133.776 342.408 134.016C342.936 134.256 343.2 134.64 343.2 135.168C343.2 135.456 343.104 135.912 342.912 136.536C342.72 137.16 342.456 137.784 342.12 138.408C341.256 140.136 340.824 141.6 340.824 142.8C340.824 143.52 341.064 144.312 341.544 145.176C342.072 146.04 342.864 147.12 343.92 148.416C345.456 150.432 346.608 152.16 347.376 153.6C348.192 154.992 348.6 156.528 348.6 158.208C348.6 158.688 348.552 159.36 348.456 160.224C350.808 159.312 353.568 156.888 356.736 152.952C357.312 152.28 357.96 151.944 358.68 151.944ZM363.703 168.36C360.727 168.36 358.351 167.28 356.575 165.12C354.799 162.96 353.911 160.128 353.911 156.624C353.911 152.784 354.799 149.16 356.575 145.752C358.351 142.296 360.703 139.536 363.631 137.472C366.607 135.36 369.751 134.304 373.063 134.304C374.119 134.304 374.815 134.52 375.151 134.952C375.535 135.336 375.847 136.056 376.087 137.112C377.095 136.92 378.151 136.824 379.255 136.824C381.607 136.824 382.783 137.664 382.783 139.344C382.783 140.352 382.423 142.752 381.703 146.544C380.599 152.064 380.047 155.904 380.047 158.064C380.047 158.784 380.215 159.36 380.551 159.792C380.935 160.224 381.415 160.44 381.991 160.44C382.903 160.44 384.007 159.864 385.303 158.712C386.599 157.512 388.351 155.592 390.559 152.952C391.135 152.28 391.783 151.944 392.503 151.944C393.127 151.944 393.607 152.232 393.943 152.808C394.327 153.384 394.519 154.176 394.519 155.184C394.519 157.104 394.063 158.592 393.151 159.648C391.183 162.096 389.095 164.16 386.887 165.84C384.679 167.52 382.543 168.36 380.479 168.36C378.895 168.36 377.431 167.832 376.087 166.776C374.791 165.672 373.807 164.184 373.135 162.312C370.639 166.344 367.495 168.36 363.703 168.36ZM366.295 161.088C367.351 161.088 368.359 160.464 369.319 159.216C370.279 157.968 370.975 156.312 371.407 154.248L374.071 141C372.055 141.048 370.183 141.816 368.455 143.304C366.775 144.744 365.431 146.664 364.423 149.064C363.415 151.464 362.911 154.008 362.911 156.696C362.911 158.184 363.199 159.288 363.775 160.008C364.399 160.728 365.239 161.088 366.295 161.088ZM428.627 151.944C429.251 151.944 429.731 152.232 430.067 152.808C430.451 153.384 430.643 154.176 430.643 155.184C430.643 157.104 430.187 158.592 429.275 159.648C427.067 162.192 424.787 164.28 422.435 165.912C420.131 167.544 417.491 168.36 414.515 168.36C412.067 168.36 410.219 167.664 408.971 166.272C407.723 164.832 407.099 162.768 407.099 160.08C407.099 158.736 407.435 156.336 408.107 152.88C408.731 149.856 409.043 147.768 409.043 146.616C409.043 145.848 408.779 145.464 408.251 145.464C407.627 145.464 406.739 146.28 405.587 147.912C404.435 149.496 403.283 151.608 402.131 154.248C400.979 156.888 400.043 159.672 399.323 162.6C398.411 166.44 396.155 168.36 392.555 168.36C391.115 168.36 390.155 167.856 389.675 166.848C389.243 165.792 389.027 163.92 389.027 161.232C389.027 159.696 389.051 158.472 389.099 157.56L389.171 151.8C389.171 144.408 389.915 136.704 391.403 128.688C392.939 120.672 395.171 113.952 398.099 108.528C401.075 103.056 404.627 100.32 408.755 100.32C410.963 100.32 412.739 101.28 414.083 103.2C415.475 105.072 416.171 107.52 416.171 110.544C416.171 115.392 414.755 120.432 411.923 125.664C409.091 130.848 404.483 136.92 398.099 143.88C397.955 146.376 397.883 148.944 397.883 151.584C399.467 147.504 401.219 144.192 403.139 141.648C405.107 139.056 407.027 137.208 408.899 136.104C410.819 135 412.571 134.448 414.155 134.448C417.275 134.448 418.835 136.008 418.835 139.128C418.835 141 418.307 144.384 417.251 149.28C416.339 153.456 415.883 156.216 415.883 157.56C415.883 159.48 416.579 160.44 417.971 160.44C418.931 160.44 420.059 159.864 421.355 158.712C422.699 157.512 424.475 155.592 426.683 152.952C427.259 152.28 427.907 151.944 428.627 151.944ZM407.243 107.448C406.379 107.448 405.419 108.696 404.363 111.192C403.307 113.64 402.275 116.976 401.267 121.2C400.307 125.376 399.515 129.936 398.891 134.88C401.867 131.376 404.315 127.56 406.235 123.432C408.203 119.304 409.187 115.56 409.187 112.2C409.187 110.664 409.019 109.488 408.683 108.672C408.347 107.856 407.867 107.448 407.243 107.448ZM434.24 129.696C432.224 129.696 430.712 129.24 429.704 128.328C428.696 127.368 428.192 126.048 428.192 124.368C428.192 122.688 428.84 121.296 430.136 120.192C431.48 119.04 433.136 118.464 435.104 118.464C436.88 118.464 438.32 118.896 439.424 119.76C440.528 120.624 441.08 121.848 441.08 123.432C441.08 125.352 440.456 126.888 439.208 128.04C437.96 129.144 436.304 129.696 434.24 129.696ZM433.664 168.36C430.544 168.36 428.264 167.256 426.824 165.048C425.432 162.84 424.736 159.912 424.736 156.264C424.736 154.104 425 151.344 425.528 147.984C426.104 144.576 426.824 141.408 427.688 138.48C428.12 136.944 428.696 135.888 429.416 135.312C430.136 134.736 431.288 134.448 432.872 134.448C435.32 134.448 436.544 135.264 436.544 136.896C436.544 138.096 436.088 140.88 435.176 145.248C434.024 150.528 433.448 154.104 433.448 155.976C433.448 157.416 433.64 158.52 434.024 159.288C434.408 160.056 435.056 160.44 435.968 160.44C436.832 160.44 437.912 159.84 439.208 158.64C440.504 157.44 442.232 155.544 444.392 152.952C444.968 152.28 445.616 151.944 446.336 151.944C446.96 151.944 447.44 152.232 447.776 152.808C448.16 153.384 448.352 154.176 448.352 155.184C448.352 157.104 447.896 158.592 446.984 159.648C442.232 165.456 437.792 168.36 433.664 168.36ZM447.638 168.36C445.814 168.36 444.518 167.4 443.75 165.48C443.03 163.56 442.67 160.488 442.67 156.264C442.67 150.024 443.558 144.096 445.334 138.48C445.766 137.088 446.462 136.08 447.422 135.456C448.43 134.784 449.822 134.448 451.598 134.448C452.558 134.448 453.23 134.568 453.614 134.808C453.998 135.048 454.19 135.504 454.19 136.176C454.19 136.944 453.83 138.672 453.11 141.36C452.63 143.28 452.246 144.96 451.958 146.4C451.67 147.84 451.43 149.616 451.238 151.728C452.822 147.6 454.598 144.24 456.566 141.648C458.534 139.056 460.454 137.208 462.326 136.104C464.246 135 465.998 134.448 467.582 134.448C469.118 134.448 470.27 134.856 471.038 135.672C471.854 136.44 472.262 137.592 472.262 139.128C472.262 140.376 471.998 142.728 471.47 146.184C470.99 149.112 470.606 151.896 470.318 154.536C470.03 157.128 469.886 160.032 469.886 163.248C469.886 165.072 469.502 166.392 468.734 167.208C468.014 167.976 466.814 168.36 465.134 168.36C463.55 168.36 462.398 167.952 461.678 167.136C460.958 166.32 460.598 165.096 460.598 163.464C460.598 161.544 460.934 158.376 461.606 153.96C462.182 150.12 462.47 147.672 462.47 146.616C462.47 145.848 462.206 145.464 461.678 145.464C461.054 145.464 460.166 146.28 459.014 147.912C457.91 149.496 456.758 151.608 455.558 154.248C454.406 156.888 453.47 159.672 452.75 162.6C452.222 164.856 451.598 166.392 450.878 167.208C450.206 167.976 449.126 168.36 447.638 168.36Z" fill="black"/>
</svg>
